<?xml version="1.0" encoding="UTF-8" standalone="no"?>
<!DOCTYPE svg PUBLIC "-//W3C//DTD SVG 1.1//EN" "http://www.w3.org/Graphics/SVG/1.1/DTD/svg11.dtd">
<svg xmlns="http://www.w3.org/2000/svg" version="1.1" viewBox="0.00 0.00 1499.00 1536.00">
<g stroke-width="2.00" fill="none" stroke-linecap="butt">
<path stroke="#9abdd7" vector-effect="non-scaling-stroke" d="
  M 1038.33 1341.03
  Q 1044.10 1338.33 1064.43 1326.80
  Q 1071.75 1322.65 1081.77 1316.30
  C 1099.36 1305.13 1116.40 1293.89 1133.42 1281.18
  Q 1137.18 1278.37 1150.24 1267.34
  C 1151.34 1266.41 1152.60 1265.66 1153.88 1264.63
  Q 1173.66 1248.70 1191.29 1231.79
  Q 1211.18 1212.70 1236.78 1183.35
  Q 1242.51 1176.79 1251.17 1165.65
  Q 1261.80 1151.99 1265.00 1147.51
  Q 1282.02 1123.71 1296.82 1099.96
  C 1306.71 1084.08 1316.27 1065.50 1323.84 1050.36
  C 1341.56 1014.95 1355.12 978.31 1365.73 940.31
  Q 1371.95 918.04 1376.57 894.18
  Q 1406.86 737.73 1362.16 584.28
  C 1356.02 563.20 1347.47 537.74 1337.46 515.27
  Q 1327.56 493.04 1326.13 489.86
  C 1319.03 474.05 1312.06 461.78 1303.23 445.75
  Q 1295.72 432.13 1287.30 419.45
  Q 1272.96 397.85 1269.07 392.44
  Q 1252.82 369.90 1233.15 346.35
  Q 1230.90 343.66 1206.58 317.68
  Q 1192.55 302.68 1178.71 290.66
  Q 1154.28 269.43 1142.95 260.57
  Q 1104.77 230.72 1063.60 207.00
  C 1027.59 186.25 986.62 168.03 943.66 154.11
  Q 884.91 135.08 823.24 127.82
  Q 693.72 112.58 567.31 147.08
  Q 535.26 155.83 504.00 168.77
  C 484.25 176.94 464.20 185.85 445.86 195.44
  Q 431.25 203.09 417.04 211.70
  Q 397.41 223.59 388.85 229.10
  Q 372.77 239.45 357.13 251.63
  C 336.19 267.93 320.67 279.57 305.18 295.07
  C 302.97 297.29 300.49 298.89 298.23 301.49
  Q 296.45 303.53 293.24 306.52
  Q 284.72 314.43 283.97 315.22
  Q 273.24 326.52 271.28 328.49
  C 267.68 332.11 265.13 335.59 261.76 339.16
  Q 259.29 341.76 254.68 347.24
  Q 241.40 363.02 239.42 365.41
  Q 226.61 380.97 209.31 407.03
  Q 203.60 415.62 202.15 417.73
  Q 196.56 425.86 195.13 428.49
  C 192.38 433.56 188.57 438.83 185.36 444.84
  C 174.14 465.83 169.64 473.65 163.37 486.45
  C 158.12 497.20 153.06 509.96 148.83 519.64
  Q 144.51 529.53 140.71 540.12
  Q 128.59 573.82 121.43 600.66
  Q 115.79 621.80 110.39 650.49
  C 97.40 719.55 96.00 790.19 106.19 859.87
  Q 109.86 885.00 113.63 902.64
  Q 126.13 961.09 149.78 1017.81
  C 157.29 1035.82 166.96 1055.49 175.60 1071.69
  Q 191.09 1100.75 210.07 1128.19
  Q 226.59 1152.06 238.77 1167.50
  C 255.57 1188.77 276.18 1211.56 297.86 1232.17
  Q 318.73 1252.00 321.57 1254.34
  Q 355.01 1281.85 379.71 1299.07
  Q 405.84 1317.30 442.98 1337.61
  C 466.55 1350.50 491.85 1361.45 517.72 1371.50
  Q 562.41 1388.87 611.73 1398.99
  Q 637.71 1404.32 657.00 1407.03
  C 701.00 1413.20 745.73 1414.81 790.57 1411.26
  C 828.47 1408.26 864.77 1402.84 899.24 1393.68
  Q 906.48 1391.75 921.34 1387.57
  Q 950.67 1379.31 984.18 1366.10
  Q 995.40 1361.68 1006.54 1356.35
  Q 1023.09 1348.43 1028.45 1345.71
  Q 1029.51 1345.17 1038.33 1341.03"
/>
<path stroke="#9abdd7" vector-effect="non-scaling-stroke" d="
  M 195.59 464.44
  Q 195.40 464.49 195.34 464.59
  C 190.39 473.07 186.04 483.05 182.00 490.91
  Q 172.72 508.94 166.97 523.42
  C 159.56 542.05 150.68 566.39 144.23 588.47
  Q 115.18 687.98 118.72 790.75
  Q 123.56 931.11 187.90 1056.11
  Q 197.98 1075.69 208.28 1092.02
  Q 223.63 1116.38 229.43 1124.83
  C 241.89 1142.99 256.06 1160.19 270.70 1177.55
  Q 283.57 1192.81 309.77 1218.76
  C 320.79 1229.69 330.71 1237.61 346.00 1250.36
  Q 365.35 1266.50 379.96 1277.11
  Q 391.54 1285.51 427.20 1307.99
  Q 438.26 1314.95 452.72 1322.18
  C 476.63 1334.14 500.33 1345.66 524.79 1354.68
  C 568.09 1370.64 613.89 1382.98 660.32 1389.11
  Q 698.30 1394.11 736.24 1394.92
  Q 789.06 1396.05 847.21 1386.12
  Q 874.88 1381.39 893.29 1376.73
  Q 917.82 1370.52 939.52 1363.04
  C 963.45 1354.79 986.31 1346.56 1006.80 1336.50
  Q 1029.49 1325.36 1034.57 1322.58
  Q 1051.09 1313.58 1064.57 1305.87
  Q 1076.44 1299.08 1093.33 1287.19
  Q 1109.82 1275.57 1134.67 1257.07
  Q 1137.91 1254.66 1139.02 1253.59
  C 1142.52 1250.23 1145.29 1248.53 1149.76 1244.58
  Q 1167.25 1229.10 1180.37 1216.83
  Q 1196.41 1201.83 1209.18 1187.27
  Q 1231.24 1162.11 1252.11 1134.12
  C 1266.55 1114.77 1279.47 1093.31 1291.31 1072.83
  Q 1299.61 1058.47 1306.00 1045.01
  C 1312.11 1032.12 1319.99 1015.20 1325.58 1001.15
  C 1370.85 887.39 1381.64 762.96 1357.65 643.08
  Q 1344.34 576.57 1315.38 509.95
  Q 1312.59 503.53 1296.48 471.43
  Q 1291.47 461.45 1283.01 447.72
  Q 1281.74 445.66 1268.37 423.71
  Q 1263.42 415.58 1243.49 388.50
  Q 1237.07 379.78 1218.20 357.55
  Q 1203.02 339.67 1190.90 327.80
  Q 1169.72 307.05 1156.88 295.82
  Q 1139.90 280.97 1117.48 264.30
  Q 1095.94 248.30 1076.17 235.93
  Q 949.55 156.70 799.26 143.73
  Q 728.45 137.62 657.50 147.03
  Q 624.18 151.46 593.51 159.28
  C 558.40 168.24 522.99 179.38 489.80 194.58
  Q 461.49 207.53 437.04 221.07
  C 415.63 232.93 392.33 248.76 372.27 263.19
  Q 358.39 273.18 342.75 286.45
  Q 326.94 299.88 314.48 311.24
  Q 310.00 315.32 307.70 317.70
  Q 287.77 338.27 280.74 345.76
  Q 276.68 350.08 274.33 352.82
  C 268.91 359.16 264.58 363.85 258.96 371.00
  Q 256.16 374.56 249.83 382.57
  Q 237.57 398.09 223.11 418.93
  Q 218.28 425.89 213.29 434.32
  C 210.35 439.29 206.01 445.78 202.15 453.06
  Q 200.73 455.73 200.16 456.15
  A 1.71 1.69 85.2 0 0 199.66 456.75
  L 195.91 464.17
  A 0.55 0.53 3.6 0 1 195.59 464.44"
/>
<path stroke="#9abdd7" vector-effect="non-scaling-stroke" d="
  M 715.71 175.44
  A 0.34 0.34 0.0 0 0 715.38 175.79
  L 719.17 291.48
  A 0.34 0.34 0.0 0 0 719.52 291.81
  L 747.43 290.89
  A 0.34 0.34 0.0 0 0 747.76 290.54
  L 743.97 174.85
  A 0.34 0.34 0.0 0 0 743.62 174.52
  L 715.71 175.44"
/>
<path stroke="#9abdd7" vector-effect="non-scaling-stroke" d="
  M 860.91 255.84
  Q 860.42 255.92 860.02 255.24
  Q 843.18 226.25 833.04 209.26
  Q 826.41 198.15 816.43 180.01
  A 3.11 3.08 -10.4 0 0 814.13 178.44
  L 792.68 175.64
  A 0.67 0.67 0.0 0 0 791.94 176.19
  L 771.41 288.44
  A 0.93 0.93 0.0 0 0 772.15 289.52
  L 798.21 294.28
  A 0.81 0.81 0.0 0 0 799.16 293.63
  L 811.33 227.07
  A 0.50 0.49 35.4 0 1 812.25 226.92
  Q 834.73 266.31 856.84 302.39
  Q 858.15 304.52 860.28 304.95
  Q 870.21 306.96 879.52 308.37
  A 0.92 0.91 9.0 0 0 880.56 307.62
  Q 881.75 300.90 883.06 291.53
  Q 883.93 285.27 885.83 275.53
  Q 893.82 234.54 900.39 195.46
  A 1.00 0.99 10.2 0 0 899.58 194.31
  L 873.74 189.58
  A 0.52 0.52 0.0 0 0 873.14 190.00
  L 861.14 255.62
  A 0.28 0.28 0.0 0 1 860.91 255.84"
/>
<path stroke="#9abdd7" vector-effect="non-scaling-stroke" d="
  M 668.05 257.75
  Q 685.58 245.71 684.57 224.45
  Q 684.22 217.14 682.37 211.13
  C 678.76 199.45 667.72 190.20 655.96 187.05
  Q 643.53 183.73 629.51 186.00
  Q 625.54 186.65 599.07 192.54
  Q 582.78 196.17 573.36 197.92
  A 0.43 0.43 0.0 0 0 573.02 198.43
  L 596.07 312.94
  A 0.60 0.59 -12.2 0 0 596.79 313.40
  L 623.92 307.22
  A 0.69 0.69 0.0 0 0 624.43 306.40
  L 617.08 274.17
  A 0.49 0.48 -12.2 0 1 617.46 273.59
  L 640.96 268.86
  A 2.85 2.85 0.0 0 1 643.53 269.63
  L 670.58 296.68
  A 2.51 2.51 0.0 0 0 672.92 297.36
  L 700.55 291.06
  A 0.41 0.41 0.0 0 0 700.75 290.37
  L 667.97 258.63
  A 0.57 0.57 0.0 0 1 668.05 257.75"
/>
<path stroke="#9abdd7" vector-effect="non-scaling-stroke" d="
  M 977.12 279.95
  Q 977.28 278.51 978.37 277.53
  Q 978.77 277.17 978.76 276.57
  Q 978.75 276.06 978.98 275.58
  Q 984.82 263.44 988.90 254.04
  A 0.45 0.45 0.0 0 1 989.49 253.81
  L 1023.04 268.44
  A 0.75 0.75 0.0 0 0 1024.03 268.05
  L 1032.67 248.25
  A 1.17 1.16 23.7 0 0 1032.07 246.72
  L 937.96 205.68
  A 0.82 0.82 0.0 0 0 936.89 206.10
  L 928.27 225.89
  A 0.85 0.85 0.0 0 0 928.71 227.02
  L 962.06 241.57
  A 0.77 0.77 0.0 0 1 962.46 242.59
  L 926.16 325.82
  A 1.46 1.46 0.0 0 0 926.92 327.75
  L 950.65 338.10
  A 0.89 0.88 -66.1 0 0 951.81 337.65
  L 977.05 280.20
  A 1.10 1.05 62.0 0 0 977.12 279.95"
/>
<path stroke="#9abdd7" vector-effect="non-scaling-stroke" d="
  M 514.27 350.65
  A 1.10 1.10 0.0 0 0 514.77 349.17
  L 500.97 321.47
  A 0.94 0.94 0.0 0 1 501.45 320.18
  C 514.37 314.74 527.40 308.36 538.11 299.43
  Q 548.98 290.37 552.52 278.43
  Q 555.04 269.88 553.21 260.37
  Q 550.09 244.21 538.38 234.46
  C 524.09 222.57 503.56 224.53 487.65 232.17
  Q 477.15 237.21 465.17 243.78
  C 455.26 249.22 445.78 253.90 438.48 257.15
  A 1.04 1.04 0.0 0 0 437.97 258.56
  L 489.61 362.24
  A 0.61 0.61 0.0 0 0 490.43 362.52
  L 514.27 350.65"
/>
<path stroke="#9abdd7" vector-effect="non-scaling-stroke" d="
  M 1080.13 285.47
  Q 1080.93 284.05 1082.59 281.57
  A 1.10 1.09 33.5 0 0 1082.27 280.04
  L 1060.12 265.80
  A 1.24 1.24 0.0 0 0 1058.41 266.17
  L 1023.74 320.08
  A 0.75 0.68 -29.8 0 0 1023.63 320.42
  Q 1023.54 321.60 1022.67 322.72
  Q 1019.57 326.71 1014.78 334.02
  Q 1010.33 340.82 996.98 361.96
  A 1.02 1.02 0.0 0 0 997.29 363.36
  L 1019.57 377.69
  A 0.98 0.97 32.5 0 0 1020.91 377.40
  C 1027.47 367.22 1033.57 358.13 1040.11 346.98
  Q 1043.33 341.49 1047.51 335.36
  Q 1047.69 335.10 1048.04 334.57
  Q 1056.65 321.43 1061.23 314.67
  C 1067.39 305.59 1073.15 295.64 1079.81 285.68
  A 0.14 0.13 -72.6 0 1 1079.92 285.62
  Q 1079.95 285.62 1079.98 285.63
  A 0.22 0.07 -64.2 0 0 1080.13 285.47"
/>
<path stroke="#789cb8" vector-effect="non-scaling-stroke" d="
  M 1155.68 428.67
  Q 1160.99 423.62 1166.13 418.45
  C 1169.17 415.38 1172.75 411.04 1176.33 407.56
  Q 1176.53 407.37 1176.67 406.65"
/>
<path stroke="#9abdd7" vector-effect="non-scaling-stroke" d="
  M 1176.67 406.65
  Q 1178.04 404.67 1180.14 403.57
  A 1.79 1.74 -87.4 0 0 1180.80 402.95
  Q 1182.19 400.69 1184.09 399.05
  C 1187.53 396.09 1191.33 391.92 1199.15 384.05
  A 1.17 1.16 -45.2 0 0 1199.15 382.40
  L 1181.23 364.67
  A 1.36 1.36 0.0 0 0 1179.30 364.68
  L 1132.57 411.89
  A 0.47 0.46 -20.4 0 1 1131.77 411.53
  L 1139.18 323.79
  A 0.53 0.51 -67.4 0 0 1139.01 323.36
  L 1121.27 307.79
  A 0.94 0.94 0.0 0 0 1119.99 307.83
  Q 1102.75 325.13 1087.04 342.00
  C 1072.48 357.63 1062.86 366.98 1049.51 380.66
  C 1046.36 383.88 1044.12 386.71 1040.95 389.51
  A 0.97 0.97 0.0 0 0 1040.92 390.94
  L 1060.04 409.07
  A 0.76 0.76 0.0 0 0 1061.12 409.05
  L 1107.78 359.85
  A 0.49 0.49 0.0 0 1 1108.62 360.23
  L 1101.14 448.84
  A 1.76 1.72 25.5 0 0 1101.65 450.22
  L 1118.57 466.97
  A 0.41 0.40 43.5 0 0 1119.15 466.96
  L 1155.68 428.67"
/>
<path stroke="#dedee0" vector-effect="non-scaling-stroke" d="
  M 1176.67 406.65
  Q 1176.33 406.58 1176.09 406.82
  Q 1165.54 417.36 1155.68 428.67"
/>
<path stroke="#9abdd7" vector-effect="non-scaling-stroke" d="
  M 929.29 1170.81
  Q 948.27 1161.98 963.12 1153.39
  Q 1082.55 1084.29 1143.56 961.38
  Q 1147.93 952.57 1152.44 941.86
  Q 1158.18 928.21 1160.47 921.92
  Q 1213.15 777.44 1166.78 632.72
  Q 1155.72 598.23 1136.17 560.97
  C 1132.71 554.37 1127.85 546.51 1121.99 536.52
  Q 1110.62 517.15 1096.94 499.55
  C 1080.26 478.10 1061.83 457.30 1041.38 439.35
  C 1026.74 426.50 1013.73 415.32 1000.37 406.38
  Q 986.37 397.01 977.59 391.40
  Q 944.71 370.40 908.70 356.29
  C 888.16 348.25 865.64 340.64 843.54 335.72
  C 816.00 329.60 787.22 325.43 759.52 324.55
  Q 644.87 320.92 543.62 372.66
  Q 511.10 389.28 476.91 414.28
  C 471.18 418.48 466.40 422.80 459.00 428.99
  Q 432.49 451.17 410.04 476.78
  Q 396.39 492.35 379.13 516.75
  C 360.22 543.49 344.60 573.18 332.48 602.47
  C 313.89 647.37 302.85 696.42 300.45 745.75
  Q 295.09 855.67 341.84 955.14
  C 369.75 1014.51 411.24 1068.36 462.99 1110.34
  Q 480.61 1124.63 494.44 1134.07
  Q 555.35 1175.67 624.59 1195.12
  Q 682.44 1211.37 743.07 1211.66
  Q 840.41 1212.14 929.29 1170.81"
/>
<path stroke="#9abdd7" vector-effect="non-scaling-stroke" d="
  M 404.99 430.31
  C 409.39 423.20 411.80 415.44 413.68 406.05
  C 417.61 386.40 407.44 366.60 392.79 353.97
  C 374.10 337.87 346.81 338.47 326.74 351.29
  C 319.27 356.06 312.81 361.96 307.08 368.41
  Q 304.99 370.76 299.57 376.24
  Q 280.15 395.87 276.04 399.86
  A 0.93 0.93 0.0 0 0 276.03 401.19
  L 357.57 481.90
  A 0.98 0.98 0.0 0 0 358.95 481.89
  Q 370.93 469.81 386.31 453.81
  Q 397.94 441.71 404.99 430.31"
/>
<path stroke="#9abdd7" vector-effect="non-scaling-stroke" d="
  M 1274.04 523.08
  C 1275.48 511.39 1275.59 498.76 1271.42 487.72
  C 1264.58 469.57 1252.52 453.86 1234.67 445.53
  Q 1213.69 435.74 1190.28 443.15
  C 1181.68 445.88 1173.05 452.25 1167.01 458.55
  Q 1146.05 480.42 1150.62 509.49
  C 1152.71 522.80 1159.12 535.04 1167.31 545.24
  Q 1180.02 561.07 1200.21 568.65
  A 0.90 0.89 38.1 0 0 1201.00 568.56
  L 1237.36 545.37
  A 1.45 1.45 0.0 0 0 1237.83 543.42
  L 1226.42 523.90
  A 1.38 1.38 0.0 0 0 1224.48 523.44
  L 1198.38 540.08
  A 1.34 1.33 48.2 0 1 1196.82 539.99
  C 1185.90 531.08 1176.68 521.59 1176.10 506.54
  Q 1175.38 487.88 1190.01 475.26
  Q 1202.21 464.73 1219.06 467.35
  C 1237.62 470.24 1249.20 487.64 1250.73 505.01
  Q 1251.25 510.84 1251.15 518.14
  A 1.04 1.04 0.0 0 0 1251.97 519.18
  L 1273.05 523.79
  A 0.83 0.82 -80.4 0 0 1274.04 523.08"
/>
<path stroke="#9abdd7" vector-effect="non-scaling-stroke" d="
  M 272.90 487.99
  L 264.98 453.25
  A 3.09 3.08 -81.4 0 0 263.54 451.29
  L 247.59 441.95
  A 1.02 1.01 30.2 0 0 246.20 442.31
  L 204.52 513.49
  A 1.29 1.28 30.4 0 0 204.98 515.24
  L 222.75 525.64
  A 0.95 0.95 0.0 0 0 224.05 525.30
  L 249.57 481.71
  A 0.54 0.54 0.0 0 1 250.57 481.89
  L 256.15 515.74
  A 1.67 1.65 10.9 0 0 256.96 516.92
  L 271.58 525.48
  A 0.99 0.99 0.0 0 0 272.93 525.13
  Q 277.58 517.17 283.81 509.29
  Q 285.94 506.59 289.45 504.20
  C 295.90 499.82 304.40 500.83 308.24 508.07
  C 313.19 517.38 308.00 528.17 301.61 535.88
  Q 295.34 543.44 284.64 549.15
  Q 278.87 552.23 276.79 552.95
  A 0.77 0.77 0.0 0 0 276.33 553.98
  L 284.44 573.25
  A 1.64 1.63 -21.2 0 0 286.49 574.15
  C 305.83 567.24 321.19 551.65 330.28 533.79
  C 333.25 527.97 335.65 520.33 335.26 513.86
  C 335.06 510.53 335.24 507.15 334.84 504.40
  C 331.72 482.78 309.51 467.35 288.59 477.64
  Q 280.51 481.61 273.93 488.29
  A 0.61 0.61 0.0 0 1 272.90 487.99"
/>
<path stroke="#9abdd7" vector-effect="non-scaling-stroke" d="
  M 491.43 1249.88
  Q 491.83 1248.57 492.01 1248.25
  Q 500.28 1233.15 510.99 1214.00
  A 1.07 1.07 0.0 0 1 512.43 1213.58
  L 542.08 1229.76
  A 0.74 0.74 0.0 0 0 542.95 1229.64
  Q 544.90 1227.71 545.17 1227.13
  Q 548.41 1220.26 552.91 1211.68
  A 1.07 1.06 28.7 0 0 552.49 1210.26
  Q 537.45 1201.76 521.36 1193.54
  C 500.89 1183.09 485.83 1173.46 467.58 1163.28
  A 0.76 0.75 29.5 0 0 466.56 1163.56
  L 456.42 1180.88
  A 0.97 0.97 0.0 0 0 456.77 1182.21
  L 486.98 1199.90
  A 0.75 0.74 29.7 0 1 487.26 1200.90
  L 444.32 1279.61
  A 0.90 0.90 0.0 0 0 444.66 1280.82
  L 466.87 1293.83
  A 0.75 0.75 0.0 0 0 467.91 1293.54
  L 491.26 1250.29
  A 3.23 3.01 -24.5 0 0 491.43 1249.88"
/>
<path stroke="#9abdd7" vector-effect="non-scaling-stroke" d="
  M 1013.81 1176.91
  C 999.24 1176.23 987.16 1180.19 973.87 1186.85
  C 962.01 1192.80 950.90 1202.19 946.71 1214.48
  C 939.47 1235.76 950.32 1257.92 974.80 1256.98
  Q 980.31 1256.77 985.78 1255.54
  Q 989.91 1254.62 1008.49 1249.51
  C 1015.75 1247.51 1026.84 1245.39 1029.16 1254.59
  C 1031.16 1262.54 1024.46 1268.96 1017.85 1272.68
  Q 1014.60 1274.50 1007.67 1277.10
  Q 992.03 1282.98 976.02 1281.33
  A 0.40 0.40 0.0 0 0 975.58 1281.73
  L 975.58 1303.27
  A 0.78 0.78 0.0 0 0 976.32 1304.05
  Q 1004.32 1305.88 1028.35 1291.31
  Q 1037.17 1285.97 1043.51 1279.49
  Q 1045.99 1276.96 1049.26 1272.19
  Q 1057.56 1260.10 1054.79 1246.26
  C 1052.41 1234.36 1045.01 1225.40 1033.09 1223.43
  Q 1021.72 1221.54 1009.93 1224.90
  Q 996.08 1228.85 989.79 1230.53
  Q 983.74 1232.15 978.53 1232.04
  C 971.17 1231.87 968.96 1225.45 970.48 1219.12
  C 971.95 1213.00 979.23 1207.61 984.72 1204.94
  Q 998.86 1198.05 1015.23 1198.32
  A 0.85 0.85 0.0 0 0 1016.10 1197.41
  L 1014.67 1177.75
  A 0.91 0.91 0.0 0 0 1013.81 1176.91"
/>
<path stroke="#9abdd7" vector-effect="non-scaling-stroke" d="
  M 548.35 1271.18
  Q 545.19 1282.64 546.83 1296.00
  C 548.81 1312.03 559.50 1326.64 572.99 1335.23
  C 588.17 1344.90 607.20 1349.34 625.27 1345.05
  C 646.67 1339.96 661.80 1325.19 667.62 1304.11
  C 673.44 1283.03 668.03 1262.58 652.27 1247.23
  C 638.97 1234.28 620.35 1228.33 602.36 1228.84
  C 586.38 1229.29 569.70 1236.35 559.79 1249.09
  Q 551.52 1259.72 548.35 1271.18"
/>
<path stroke="#9abdd7" vector-effect="non-scaling-stroke" d="
  M 869.94 1348.88
  A 0.85 0.85 0.0 0 0 870.99 1349.48
  Q 888.25 1344.55 896.90 1342.07
  Q 921.52 1335.00 949.11 1326.25
  A 1.32 1.31 73.7 0 0 949.98 1324.66
  L 944.91 1305.61
  A 0.73 0.73 0.0 0 0 943.99 1305.10
  L 892.68 1320.79
  A 1.31 1.31 0.0 0 1 891.07 1320.00
  Q 889.89 1316.90 889.21 1314.30
  C 885.07 1298.48 882.09 1288.58 878.10 1272.80
  Q 876.94 1268.20 873.08 1255.16
  C 871.04 1248.28 868.88 1239.89 867.26 1232.42
  A 0.83 0.82 75.4 0 0 866.22 1231.80
  L 841.69 1239.31
  A 0.90 0.89 -15.8 0 0 841.08 1240.39
  L 869.94 1348.88"
/>
<path stroke="#9abdd7" vector-effect="non-scaling-stroke" d="
  M 818.52 1322.67
  Q 820.16 1316.04 820.16 1313.75
  A 3.79 3.71 53.2 0 1 820.29 1312.77
  Q 821.31 1309.13 821.27 1304.73
  Q 821.14 1291.63 815.75 1279.41
  C 807.26 1260.14 786.56 1247.82 765.92 1246.42
  Q 738.60 1244.57 717.86 1260.75
  C 698.59 1275.79 693.39 1301.33 700.00 1324.21
  Q 702.86 1334.13 710.46 1342.72
  Q 727.31 1361.77 751.89 1363.60
  C 776.99 1365.48 799.69 1357.13 813.25 1335.33
  Q 816.80 1329.62 818.52 1322.67"
/>
<path stroke="#9abdd7" vector-effect="non-scaling-stroke" d="
  M 604.99 214.99
  L 612.72 251.35
  A 0.88 0.88 0.0 0 0 613.77 252.03
  L 638.97 246.67
  A 21.65 17.84 -12.0 0 0 656.44 224.72
  L 655.76 221.53
  A 21.65 17.84 -12.0 0 0 630.88 208.59
  L 605.67 213.94
  A 0.88 0.88 0.0 0 0 604.99 214.99"
/>
<path stroke="#9abdd7" vector-effect="non-scaling-stroke" d="
  M 473.85 264.91
  A 1.02 1.02 0.0 0 0 473.47 266.21
  L 489.51 299.55
  A 1.43 1.43 0.0 0 0 491.38 300.24
  Q 502.79 295.23 512.52 289.51
  C 521.12 284.45 526.57 278.54 525.85 268.12
  C 525.42 261.95 520.99 254.34 514.76 252.03
  Q 506.93 249.14 499.63 251.96
  Q 487.14 256.80 473.85 264.91"
/>
<path stroke="#9abdd7" vector-effect="non-scaling-stroke" d="
  M 797.55 1090.00
  Q 798.46 1090.31 799.24 1090.75
  Q 801.63 1092.10 830.98 1112.27
  Q 841.83 1119.72 848.87 1124.19
  C 865.12 1134.49 885.23 1134.83 901.29 1124.49
  Q 914.96 1115.69 920.28 1098.50
  A 3.87 3.84 84.3 0 1 922.10 1096.26
  C 936.79 1088.09 950.80 1079.59 963.30 1069.99
  A 1.60 1.59 -26.4 0 0 963.87 1068.32
  L 949.94 1015.96
  A 1.49 1.48 63.1 0 1 950.43 1014.44
  Q 965.27 1002.18 978.88 986.90
  Q 983.25 981.99 988.72 975.80
  A 2.54 2.26 -15.1 0 0 989.12 975.19
  Q 990.39 972.45 993.13 973.17
  Q 996.39 974.03 1045.02 987.56
  A 1.32 1.31 27.3 0 0 1046.39 987.13
  C 1056.86 974.29 1065.54 959.97 1073.80 945.30
  Q 1080.96 932.58 1086.15 919.17
  A 1.43 1.42 33.0 0 0 1085.82 917.64
  L 1047.45 879.66
  A 1.66 1.65 32.1 0 1 1047.05 877.93
  C 1053.49 859.86 1058.55 841.78 1061.44 822.76
  A 1.10 1.09 -3.4 0 1 1062.23 821.88
  L 1114.92 807.87
  A 0.97 0.97 0.0 0 0 1115.63 807.05
  Q 1120.75 767.72 1115.64 728.85
  A 1.60 1.59 -86.5 0 0 1114.46 727.51
  L 1062.20 714.09
  A 1.12 1.11 3.6 0 1 1061.37 713.16
  C 1058.74 694.54 1053.78 677.75 1047.20 658.00
  A 1.81 1.79 -31.9 0 1 1047.64 656.16
  L 1085.24 618.56
  A 2.25 2.24 -33.5 0 0 1085.74 616.14
  Q 1082.99 609.23 1079.43 602.07
  C 1069.69 582.39 1059.55 565.00 1046.31 548.59
  A 1.23 1.21 62.4 0 0 1045.03 548.18
  L 993.69 562.93
  A 1.82 1.81 -30.5 0 1 991.92 562.48
  C 987.42 558.01 982.92 552.66 975.79 544.80
  C 968.25 536.48 960.51 529.95 950.98 521.42
  A 2.14 2.13 29.2 0 1 950.36 519.23
  L 965.20 467.72
  A 1.29 1.28 26.3 0 0 964.73 466.34
  C 943.56 450.77 921.13 436.79 896.65 427.08
  A 1.15 1.14 32.9 0 0 895.41 427.34
  L 857.98 466.00
  A 1.07 1.07 0.0 0 1 856.83 466.26
  Q 828.80 455.86 798.80 450.32
  A 1.17 1.15 -1.5 0 1 797.89 449.47
  L 785.11 398.11
  A 1.97 1.97 0.0 0 0 783.48 396.64
  Q 744.36 391.18 704.58 396.43
  A 1.54 1.53 3.4 0 0 703.30 397.56
  L 689.95 449.54
  A 0.93 0.92 0.9 0 1 689.24 450.22
  C 669.24 454.42 649.82 459.41 632.08 466.15
  A 2.03 2.02 -32.5 0 1 629.90 465.67
  L 593.13 427.48
  A 1.95 1.94 -33.1 0 0 590.98 427.03
  C 566.39 437.23 545.30 450.68 523.32 466.37
  A 1.21 1.19 -25.7 0 0 522.86 467.66
  Q 529.78 492.77 537.50 518.59
  Q 538.09 520.55 536.77 521.76
  C 527.06 530.63 518.47 538.36 509.11 548.68
  Q 504.89 553.33 496.71 562.39
  A 1.80 1.79 29.0 0 1 494.88 562.91
  L 443.51 548.11
  A 1.24 1.22 -62.1 0 0 442.21 548.52
  Q 434.48 558.02 427.57 568.80
  C 417.79 584.05 408.83 599.87 402.07 616.26
  A 1.70 1.69 -56.6 0 0 402.44 618.09
  L 439.96 655.61
  A 2.74 2.74 0.0 0 1 440.62 658.39
  C 434.91 675.82 429.38 693.93 427.04 712.87
  A 0.96 0.96 0.0 0 1 426.34 713.68
  L 373.47 727.74
  A 1.46 1.45 -3.6 0 0 372.40 728.95
  Q 367.36 767.38 372.19 806.17
  A 2.35 2.35 0.0 0 0 373.93 808.15
  L 425.49 821.39
  A 1.90 1.89 3.3 0 1 426.89 822.95
  C 428.82 836.17 431.34 849.58 435.79 862.34
  Q 437.57 867.47 440.48 877.19
  A 2.96 2.96 0.0 0 1 439.75 880.13
  L 402.53 917.73
  A 1.40 1.38 -32.9 0 0 402.21 919.18
  C 408.54 936.43 416.99 950.17 427.98 967.54
  Q 433.71 976.60 441.44 986.33
  A 2.21 2.18 63.1 0 0 443.72 987.09
  L 496.19 973.13
  A 1.67 1.66 -27.8 0 1 497.88 973.65
  C 509.43 986.86 522.94 1001.86 537.23 1013.78
  A 2.25 2.22 -76.5 0 1 538.00 1015.06
  Q 538.31 1016.55 537.82 1018.26
  Q 530.25 1044.69 523.93 1068.23
  A 1.09 1.08 26.3 0 0 524.32 1069.36
  Q 544.99 1085.14 565.70 1096.36
  A 5.03 5.03 0.0 0 1 568.07 1099.12
  C 571.39 1108.45 576.10 1116.27 584.33 1122.51
  Q 603.51 1137.04 627.03 1130.13
  Q 633.40 1128.25 638.22 1125.22
  Q 653.20 1115.77 667.82 1105.46
  C 674.77 1100.57 682.64 1095.57 690.23 1090.40
  A 0.91 0.91 0.0 0 1 691.62 1090.93
  L 703.38 1138.17
  A 1.70 1.69 86.7 0 0 704.80 1139.44
  Q 744.48 1144.70 783.96 1139.28
  A 1.28 1.27 -86.9 0 0 785.01 1138.33
  L 796.70 1090.46
  A 0.65 0.65 0.0 0 1 797.55 1090.00"
/>
<path stroke="#9abdd7" vector-effect="non-scaling-stroke" d="
  M 312.43 396.73
  A 1.16 1.16 0.0 0 0 312.50 398.31
  L 360.54 445.86
  A 1.12 1.12 0.0 0 0 362.12 445.85
  Q 368.62 439.32 376.69 429.95
  C 390.80 413.58 393.18 391.32 375.83 375.94
  Q 362.02 363.70 345.03 368.92
  C 331.34 373.12 321.32 386.26 312.43 396.73"
/>
<path stroke="#9abdd7" vector-effect="non-scaling-stroke" d="
  M 532.34 866.98
  Q 535.02 859.25 535.50 852.62
  A 1.69 1.68 19.1 0 0 534.75 851.08
  L 523.31 843.41"
/>
<path stroke="#789cb8" vector-effect="non-scaling-stroke" d="
  M 523.31 843.41
  C 520.36 841.65 517.28 840.02 514.50 838.17
  Q 507.64 833.58 499.41 829.00
  C 497.29 827.82 495.12 825.97 493.36 824.11
  A 3.88 3.86 9.8 0 1 492.80 823.32
  Q 489.13 816.42 491.51 808.52
  C 493.38 802.28 499.48 797.63 505.38 795.13
  Q 508.99 793.60 511.95 792.42"
/>
<path stroke="#9abdd7" vector-effect="non-scaling-stroke" d="
  M 511.95 792.42
  C 534.44 786.18 558.75 788.31 578.08 801.69
  Q 601.17 817.69 610.21 845.16
  C 613.76 855.96 612.11 866.05 619.92 873.59
  Q 623.51 877.06 629.42 880.54
  Q 653.90 894.98 677.63 909.29
  Q 693.87 919.08 694.85 919.65
  Q 701.26 923.37 711.98 930.11
  Q 725.56 938.65 743.16 948.58
  A 2.17 2.15 -44.8 0 0 745.27 948.58
  C 760.60 939.89 775.15 930.62 788.71 922.53
  C 806.86 911.71 816.03 906.59 829.75 897.89
  Q 838.05 892.62 845.58 888.63
  Q 845.67 888.58 862.91 878.42
  Q 869.44 874.57 872.92 867.60
  Q 874.41 864.61 875.14 858.61
  C 876.42 848.13 879.70 839.51 884.53 830.47
  C 902.43 796.92 939.75 781.74 976.03 792.31"
/>
<path stroke="#789cb8" vector-effect="non-scaling-stroke" d="
  M 976.03 792.31
  Q 981.02 794.10 985.85 796.89
  Q 992.22 800.57 995.92 806.89
  C 999.71 813.35 998.42 821.11 992.78 825.99
  Q 991.03 827.50 988.52 829.03
  Q 977.27 835.89 966.37 842.59
  Q 965.34 843.23 964.52 843.98"
/>
<path stroke="#9abdd7" vector-effect="non-scaling-stroke" d="
  M 964.52 843.98
  L 953.67 851.17
  A 1.74 1.74 0.0 0 0 952.91 852.90
  L 955.15 866.58"
/>
<path stroke="#789cb8" vector-effect="non-scaling-stroke" d="
  M 955.15 866.58
  Q 959.87 873.08 967.78 877.30
  Q 969.10 878.01 970.03 878.29
  A 3.27 3.26 -52.8 0 0 972.74 877.92
  L 993.71 864.55
  A 3.63 3.63 0.0 0 0 995.08 862.98
  Q 1003.11 845.30 1006.93 825.00
  Q 1007.14 823.90 1010.71 805.73
  Q 1012.29 797.66 1012.62 791.19
  Q 1013.39 775.82 1013.03 754.35
  Q 1012.91 747.52 1012.09 741.18
  Q 1010.71 730.57 1010.20 728.12
  Q 1007.28 713.99 1005.33 703.43
  Q 1004.71 700.11 1003.60 696.52
  Q 1002.68 693.54 1001.70 689.68
  Q 1000.36 684.39 998.37 679.56
  Q 989.54 658.12 985.02 648.49
  Q 977.44 632.36 965.12 614.89
  Q 953.40 598.27 943.76 587.45
  Q 936.78 579.62 928.48 572.37
  C 916.93 562.29 907.25 553.74 895.58 545.65
  Q 890.03 541.80 884.08 538.77
  A 0.48 0.40 85.3 0 1 883.89 538.58
  Q 883.86 538.52 883.82 538.46
  A 1.51 1.47 88.7 0 0 883.29 537.94
  Q 856.80 522.36 834.94 514.59
  Q 781.94 495.76 724.75 499.51
  Q 693.87 501.53 664.19 511.00
  Q 633.09 520.92 605.09 537.73
  Q 590.05 546.76 576.75 557.46
  Q 562.56 568.86 551.02 580.52
  Q 546.84 584.73 540.03 592.96
  C 538.39 594.95 536.59 596.57 535.16 598.43
  C 522.96 614.30 511.00 630.91 502.59 649.06
  Q 494.54 666.47 488.71 682.94
  C 483.21 698.48 480.60 712.22 477.63 729.07
  Q 475.50 741.16 474.98 751.49
  Q 473.48 780.96 477.83 807.99
  Q 479.21 816.54 485.44 841.73
  Q 486.57 846.29 488.79 852.21
  Q 491.66 859.87 492.88 862.42
  A 6.38 6.28 4.1 0 0 495.17 865.02
  L 515.53 878.11
  A 2.79 2.79 0.0 0 0 518.28 878.27
  Q 525.41 874.79 531.00 869.26
  Q 532.41 867.87 532.34 866.98"
/>
<path stroke="#dedee0" vector-effect="non-scaling-stroke" d="
  M 955.15 866.58
  Q 956.13 866.34 956.56 866.02
  A 0.28 0.28 0.0 0 0 956.66 865.89
  L 965.67 845.22
  A 0.13 0.11 66.3 0 0 965.69 845.15
  Q 965.87 843.62 964.52 843.98"
/>
<path stroke="#dedee0" vector-effect="non-scaling-stroke" d="
  M 976.03 792.31
  Q 976.25 790.00 976.25 787.61
  Q 976.25 784.91 976.47 782.91
  C 981.15 740.38 970.54 695.59 950.79 658.47
  Q 943.76 645.26 932.20 629.30
  Q 921.99 615.19 909.72 602.99
  Q 863.77 557.28 800.51 541.36
  C 738.00 525.63 673.10 536.69 618.80 570.82
  Q 580.36 594.98 553.47 632.48
  C 523.27 674.58 508.44 724.87 510.60 776.49
  Q 510.79 781.14 511.95 792.42"
/>
<path stroke="#dedee0" vector-effect="non-scaling-stroke" d="
  M 523.31 843.41
  L 522.87 843.57
  A 0.86 0.86 0.0 0 0 522.37 844.74
  L 532.34 866.98"
/>
<path stroke="#9abdd7" vector-effect="non-scaling-stroke" d="
  M 682.91 1074.70
  Q 684.57 1073.73 685.78 1072.92
  Q 739.15 1036.85 802.70 994.91
  Q 807.99 991.42 818.25 984.49
  C 832.21 975.04 844.64 967.32 857.77 958.16
  Q 862.01 955.20 875.71 946.40
  Q 877.25 945.41 893.70 934.69
  C 904.19 927.86 913.66 923.73 926.55 927.98
  C 931.08 929.48 935.64 931.51 939.90 932.49
  Q 963.43 937.93 984.39 926.11
  Q 996.73 919.14 1003.49 910.20
  Q 1016.05 893.58 1017.73 872.42
  A 0.95 0.94 86.1 0 0 1016.59 871.42
  L 1014.02 871.99
  A 1.08 1.05 22.4 0 0 1013.65 872.14
  Q 995.61 883.78 977.53 895.03
  C 973.19 897.73 970.44 898.03 965.88 895.54
  Q 956.13 890.19 946.18 882.32
  C 939.00 876.63 937.82 866.19 936.07 857.73
  C 934.52 850.29 932.99 844.84 938.89 840.65
  Q 958.92 826.42 979.96 813.98
  A 0.77 0.76 -45.3 0 0 979.96 812.66
  Q 975.00 809.83 969.88 808.65
  C 953.18 804.80 934.73 806.35 920.54 815.52
  C 906.77 824.43 895.06 841.20 892.78 857.49
  C 891.06 869.73 888.81 879.38 878.73 887.45
  Q 874.34 890.97 869.46 893.94
  Q 850.80 905.28 808.03 930.76
  Q 781.74 946.42 755.21 962.40
  C 744.12 969.08 740.32 971.29 728.71 977.94
  Q 723.69 980.82 708.96 989.80
  C 678.03 1008.66 656.19 1021.13 619.36 1043.34
  Q 615.56 1045.63 605.76 1051.19
  Q 597.48 1055.89 594.50 1058.77
  C 584.95 1068.02 580.53 1080.51 584.36 1093.30
  C 587.76 1104.64 596.99 1113.63 608.76 1114.90
  Q 622.14 1116.34 631.25 1109.95
  Q 645.07 1100.26 658.59 1091.33
  C 666.71 1085.98 675.19 1079.21 682.91 1074.70"
/>
<path stroke="#9abdd7" vector-effect="non-scaling-stroke" d="
  M 471.42 871.40
  A 0.93 0.93 0.0 0 0 470.37 872.40
  C 472.38 895.03 485.30 916.72 505.55 927.01
  C 517.77 933.22 532.73 935.98 546.37 932.87
  Q 551.26 931.75 556.86 929.64
  Q 563.73 927.05 567.31 926.48
  C 578.69 924.67 587.33 929.83 596.72 935.95
  Q 620.07 951.17 631.67 959.02
  Q 666.09 982.28 676.42 988.76
  A 1.22 1.20 -43.8 0 0 677.66 988.78
  L 726.28 960.35
  A 1.10 1.10 0.0 0 0 726.29 958.45
  C 713.85 951.01 703.70 944.60 692.21 937.98
  C 677.42 929.46 663.86 920.69 649.36 912.34
  Q 638.31 905.97 618.07 893.46
  C 607.14 886.70 599.55 879.64 596.99 866.25
  C 596.18 862.03 595.96 857.21 594.99 852.79
  Q 593.08 844.10 586.58 834.66
  C 575.97 819.24 562.09 809.74 543.66 807.38
  Q 529.86 805.62 516.71 809.08
  C 513.76 809.86 511.35 811.28 508.30 812.51
  A 0.82 0.79 66.6 0 0 507.89 813.60
  Q 508.05 813.95 508.56 814.18
  Q 512.64 816.03 519.86 820.90
  Q 529.69 827.53 545.69 838.07
  C 551.03 841.60 554.81 844.12 553.68 851.02
  Q 552.09 860.70 549.43 870.44
  Q 546.97 879.45 539.15 884.91
  Q 530.81 890.74 527.53 892.77
  C 523.02 895.56 519.47 898.06 514.78 896.91
  Q 513.62 896.63 505.66 892.02
  C 498.65 887.96 490.06 882.05 482.14 877.19
  C 477.40 874.28 474.16 871.77 471.42 871.40"
/>
<path stroke="#789cb8" vector-effect="non-scaling-stroke" d="
  M 604.61 997.66
  Q 604.85 997.80 605.10 998.09
  A 2.80 2.75 -5.7 0 0 605.82 998.67
  Q 619.64 1006.48 633.01 1012.77
  C 635.80 1014.08 637.52 1012.78 639.94 1011.45
  Q 650.80 1005.42 660.54 999.51
  A 0.75 0.74 46.0 0 0 660.56 998.25
  L 630.84 978.50
  A 0.87 0.87 0.0 0 1 630.62 978.28
  Q 630.44 978.04 630.17 977.87
  Q 621.09 972.38 613.33 967.18
  Q 584.92 948.14 583.96 947.56
  C 577.37 943.62 572.25 941.33 565.09 944.31
  Q 555.97 948.11 548.18 949.79
  Q 547.58 949.92 547.70 950.54
  Q 547.75 950.80 547.95 951.02
  Q 560.10 964.15 572.87 974.37
  Q 586.55 985.31 598.71 994.04
  Q 599.65 994.71 604.61 997.66"
/>
<path stroke="#789cb8" vector-effect="non-scaling-stroke" d="
  M 877.36 965.23
  Q 877.33 965.36 877.31 965.51
  Q 877.29 965.63 877.05 965.79
  Q 863.64 974.74 856.01 979.82
  Q 843.52 988.12 828.50 998.06
  A 1.02 1.02 0.0 0 0 828.55 999.79
  Q 840.74 1006.91 850.54 1012.48
  Q 853.33 1014.06 856.39 1012.44
  Q 867.86 1006.38 873.14 1003.82
  Q 882.11 999.48 889.04 994.54
  Q 901.62 985.57 909.74 979.24
  Q 926.30 966.35 940.54 951.15
  A 0.68 0.67 -62.0 0 0 940.20 950.03
  Q 931.25 947.93 923.67 944.82
  C 916.69 941.96 911.98 942.56 905.92 946.44
  Q 898.63 951.10 882.12 962.40
  Q 879.13 964.45 877.48 965.10
  A 0.20 0.18 -88.9 0 0 877.36 965.23"
/>
<path stroke="#9abdd7" vector-effect="non-scaling-stroke" d="
  M 760.50 1044.08
  Q 760.72 1044.29 761.14 1044.60
  Q 764.38 1046.98 793.27 1066.30
  C 809.80 1077.36 829.67 1091.20 853.69 1107.63
  Q 861.95 1113.28 866.19 1114.41
  C 879.92 1118.07 895.10 1112.21 901.47 1098.98
  Q 909.68 1081.95 899.52 1065.95
  Q 895.21 1059.17 888.70 1055.08
  C 881.08 1050.29 871.78 1045.40 864.25 1040.77
  Q 841.34 1026.71 815.32 1011.45
  C 812.87 1010.02 811.60 1008.95 809.27 1010.50
  Q 791.93 1021.97 760.57 1043.18
  A 0.58 0.58 0.0 0 0 760.50 1044.08"
/>
<path stroke="#9abdd7" vector-effect="non-scaling-stroke" d="
  M 744.04 907.44
  Q 748.27 907.44 751.51 905.51
  Q 771.84 893.44 789.20 883.66
  Q 803.58 875.57 811.48 870.64
  C 826.06 861.55 839.51 854.68 855.13 845.18
  Q 863.31 840.20 876.41 832.52
  C 878.02 831.58 882.28 828.65 883.45 827.18
  Q 886.87 822.92 886.86 817.28
  Q 886.72 712.79 886.76 673.02
  Q 886.77 663.15 879.40 658.88
  Q 859.10 647.12 843.15 637.67
  Q 837.98 634.60 752.62 584.89
  Q 748.26 582.34 744.05 582.34
  Q 739.83 582.34 735.47 584.89
  Q 650.11 634.60 644.94 637.67
  Q 628.99 647.12 608.69 658.88
  Q 601.32 663.15 601.33 673.02
  Q 601.37 712.79 601.23 817.28
  Q 601.22 822.92 604.64 827.18
  C 605.81 828.65 610.07 831.58 611.68 832.52
  Q 624.78 840.20 632.96 845.18
  C 648.58 854.68 662.02 861.55 676.60 870.64
  Q 684.50 875.57 698.88 883.66
  Q 716.24 893.44 736.57 905.51
  Q 739.82 907.44 744.04 907.44"
/>
<path stroke="#9abdd7" vector-effect="non-scaling-stroke" d="
  M 842.19 670.77
  A 0.35 0.35 0.0 0 0 842.19 670.17
  L 744.26 612.82
  A 0.35 0.35 0.0 0 0 743.90 612.82
  L 646.02 670.06
  A 0.35 0.35 0.0 0 0 646.02 670.66
  L 743.95 728.01
  A 0.35 0.35 0.0 0 0 744.31 728.01
  L 842.19 670.77"
/>
<path stroke="#9abdd7" vector-effect="non-scaling-stroke" d="
  M 758.52 868.06
  A 0.33 0.33 0.0 0 0 759.02 868.35
  L 857.84 810.58
  A 0.33 0.33 0.0 0 0 858.00 810.29
  L 858.00 695.00
  A 0.33 0.33 0.0 0 0 857.50 694.71
  L 758.68 752.49
  A 0.33 0.33 0.0 0 0 758.52 752.78
  L 758.52 868.06"
/>
<path stroke="#438ec3" vector-effect="non-scaling-stroke" d="
  M 630.64 695.06
  A 0.53 0.52 -75.4 0 0 629.86 695.52
  L 629.86 809.16
  A 1.60 1.59 -73.7 0 0 630.59 810.50
  Q 652.10 824.45 666.94 831.26
  Q 668.95 832.18 669.21 832.35
  C 672.86 834.75 677.40 837.21 681.69 840.21
  Q 694.79 849.38 711.00 857.74
  C 715.86 860.24 720.12 863.09 724.65 865.67
  A 3.50 3.19 79.7 0 1 725.28 866.15
  Q 726.93 867.78 728.89 868.48
  A 0.72 0.71 9.8 0 0 729.85 867.81
  L 729.85 753.90
  A 1.49 1.47 -74.6 0 0 729.14 752.63
  L 709.54 740.55
  A 1.00 0.66 56.3 0 0 709.42 740.50
  Q 707.80 740.16 706.41 738.81
  A 1.74 1.52 -3.8 0 0 706.07 738.55
  Q 699.86 734.89 692.22 730.85
  C 677.72 723.20 664.46 713.80 650.23 705.94
  Q 643.96 702.47 630.64 695.06"
/>
<path stroke="#9abdd7" vector-effect="non-scaling-stroke" d="
  M 608.5475 1066.9895
  A 17.32 17.09 -114.5 0 0 600.1788 1089.8371
  A 17.32 17.09 -114.5 0 0 622.9125 1098.5105
  A 17.32 17.09 -114.5 0 0 631.2812 1075.6629
  A 17.32 17.09 -114.5 0 0 608.5475 1066.9895"
/>
<path stroke="#9abdd7" vector-effect="non-scaling-stroke" d="
  M 889.93 1082.76
  A 17.27 17.27 0.0 0 0 872.66 1065.49
  A 17.27 17.27 0.0 0 0 855.39 1082.76
  A 17.27 17.27 0.0 0 0 872.66 1100.03
  A 17.27 17.27 0.0 0 0 889.93 1082.76"
/>
<path stroke="#9abdd7" vector-effect="non-scaling-stroke" d="
  M 574.41 1279.57
  Q 572.17 1288.72 574.35 1297.21
  Q 579.16 1315.92 598.38 1321.48
  Q 619.37 1327.54 633.59 1311.62
  Q 639.15 1305.41 641.57 1295.52
  Q 643.81 1286.36 641.63 1277.87
  Q 636.82 1259.17 617.60 1253.61
  Q 596.61 1247.55 582.39 1263.46
  Q 576.84 1269.68 574.41 1279.57"
/>
<path stroke="#9abdd7" vector-effect="non-scaling-stroke" d="
  M 762.0804 1268.9969
  A 36.29 34.83 -85.4 0 0 724.4522 1302.3767
  A 36.29 34.83 -85.4 0 0 756.2596 1341.3431
  A 36.29 34.83 -85.4 0 0 793.8878 1307.9633
  A 36.29 34.83 -85.4 0 0 762.0804 1268.9969"
/>
</g>
<g fill="#347aae">
<path d="
  M 1073.37 1342.79
  C 1070.66 1343.85 1068.88 1345.30 1066.65 1346.50
  Q 1056.92 1351.74 1051.42 1354.73
  C 1031.15 1365.76 1009.90 1375.19 988.01 1383.99
  Q 871.13 1431.00 745.26 1431.03
  Q 605.11 1431.06 477.47 1374.50
  Q 444.23 1359.78 412.44 1341.27
  Q 375.41 1319.72 339.56 1292.17
  C 298.68 1260.77 261.00 1224.06 227.55 1182.95
  Q 167.80 1109.53 131.32 1022.18
  C 96.07 937.77 79.49 847.68 80.99 754.28
  Q 82.21 678.47 100.78 605.24
  Q 114.32 551.84 135.68 502.65
  C 144.96 481.27 156.31 457.79 168.47 436.95
  Q 188.94 401.86 208.13 375.87
  Q 217.63 363.00 237.97 337.84
  C 240.07 335.25 243.49 332.32 245.47 328.95
  Q 245.80 328.39 249.74 324.79
  Q 250.52 324.07 251.52 322.41
  A 4.00 3.74 84.7 0 1 252.11 321.65
  C 265.87 307.39 278.22 293.65 294.41 279.26
  Q 316.70 259.45 337.80 242.82
  Q 351.78 231.81 367.20 221.21
  Q 382.86 210.44 405.09 196.86
  Q 426.13 184.01 459.99 167.72
  Q 499.40 148.76 545.68 134.09
  C 608.96 114.03 676.51 104.62 742.25 104.64
  C 800.49 104.66 859.19 111.29 913.87 125.91
  Q 947.44 134.88 984.72 149.05
  C 1052.16 174.68 1114.78 212.38 1170.47 258.70
  Q 1185.48 271.18 1194.34 279.61
  Q 1218.21 302.31 1228.57 313.22
  Q 1239.76 324.98 1258.39 347.58
  Q 1299.79 397.81 1329.89 454.86
  Q 1330.77 456.53 1343.25 481.71
  C 1353.60 502.59 1362.06 524.70 1370.01 546.87
  C 1374.45 559.29 1377.48 570.06 1381.62 583.36
  Q 1383.75 590.19 1385.81 598.07
  Q 1399.82 651.70 1404.79 709.99
  Q 1414.31 821.73 1388.15 927.47
  Q 1363.77 1025.95 1310.79 1112.54
  Q 1300.47 1129.42 1293.04 1140.02
  Q 1267.54 1176.44 1238.15 1209.64
  Q 1237.48 1210.40 1225.04 1223.71
  Q 1217.62 1231.65 1211.60 1237.44
  Q 1190.84 1257.39 1171.76 1273.68
  Q 1161.97 1282.04 1151.12 1290.15
  Q 1130.13 1305.86 1129.98 1305.98
  Q 1126.71 1308.65 1109.24 1320.47
  Q 1099.04 1327.38 1075.73 1341.20
  Q 1074.72 1341.80 1074.22 1342.26
  A 2.55 2.51 12.6 0 1 1073.37 1342.79
  Z
  M 1038.33 1341.03
  Q 1044.10 1338.33 1064.43 1326.80
  Q 1071.75 1322.65 1081.77 1316.30
  C 1099.36 1305.13 1116.40 1293.89 1133.42 1281.18
  Q 1137.18 1278.37 1150.24 1267.34
  C 1151.34 1266.41 1152.60 1265.66 1153.88 1264.63
  Q 1173.66 1248.70 1191.29 1231.79
  Q 1211.18 1212.70 1236.78 1183.35
  Q 1242.51 1176.79 1251.17 1165.65
  Q 1261.80 1151.99 1265.00 1147.51
  Q 1282.02 1123.71 1296.82 1099.96
  C 1306.71 1084.08 1316.27 1065.50 1323.84 1050.36
  C 1341.56 1014.95 1355.12 978.31 1365.73 940.31
  Q 1371.95 918.04 1376.57 894.18
  Q 1406.86 737.73 1362.16 584.28
  C 1356.02 563.20 1347.47 537.74 1337.46 515.27
  Q 1327.56 493.04 1326.13 489.86
  C 1319.03 474.05 1312.06 461.78 1303.23 445.75
  Q 1295.72 432.13 1287.30 419.45
  Q 1272.96 397.85 1269.07 392.44
  Q 1252.82 369.90 1233.15 346.35
  Q 1230.90 343.66 1206.58 317.68
  Q 1192.55 302.68 1178.71 290.66
  Q 1154.28 269.43 1142.95 260.57
  Q 1104.77 230.72 1063.60 207.00
  C 1027.59 186.25 986.62 168.03 943.66 154.11
  Q 884.91 135.08 823.24 127.82
  Q 693.72 112.58 567.31 147.08
  Q 535.26 155.83 504.00 168.77
  C 484.25 176.94 464.20 185.85 445.86 195.44
  Q 431.25 203.09 417.04 211.70
  Q 397.41 223.59 388.85 229.10
  Q 372.77 239.45 357.13 251.63
  C 336.19 267.93 320.67 279.57 305.18 295.07
  C 302.97 297.29 300.49 298.89 298.23 301.49
  Q 296.45 303.53 293.24 306.52
  Q 284.72 314.43 283.97 315.22
  Q 273.24 326.52 271.28 328.49
  C 267.68 332.11 265.13 335.59 261.76 339.16
  Q 259.29 341.76 254.68 347.24
  Q 241.40 363.02 239.42 365.41
  Q 226.61 380.97 209.31 407.03
  Q 203.60 415.62 202.15 417.73
  Q 196.56 425.86 195.13 428.49
  C 192.38 433.56 188.57 438.83 185.36 444.84
  C 174.14 465.83 169.64 473.65 163.37 486.45
  C 158.12 497.20 153.06 509.96 148.83 519.64
  Q 144.51 529.53 140.71 540.12
  Q 128.59 573.82 121.43 600.66
  Q 115.79 621.80 110.39 650.49
  C 97.40 719.55 96.00 790.19 106.19 859.87
  Q 109.86 885.00 113.63 902.64
  Q 126.13 961.09 149.78 1017.81
  C 157.29 1035.82 166.96 1055.49 175.60 1071.69
  Q 191.09 1100.75 210.07 1128.19
  Q 226.59 1152.06 238.77 1167.50
  C 255.57 1188.77 276.18 1211.56 297.86 1232.17
  Q 318.73 1252.00 321.57 1254.34
  Q 355.01 1281.85 379.71 1299.07
  Q 405.84 1317.30 442.98 1337.61
  C 466.55 1350.50 491.85 1361.45 517.72 1371.50
  Q 562.41 1388.87 611.73 1398.99
  Q 637.71 1404.32 657.00 1407.03
  C 701.00 1413.20 745.73 1414.81 790.57 1411.26
  C 828.47 1408.26 864.77 1402.84 899.24 1393.68
  Q 906.48 1391.75 921.34 1387.57
  Q 950.67 1379.31 984.18 1366.10
  Q 995.40 1361.68 1006.54 1356.35
  Q 1023.09 1348.43 1028.45 1345.71
  Q 1029.51 1345.17 1038.33 1341.03
  Z"
/>
<path d="
  M 195.91 464.17
  L 199.66 456.75
  A 1.71 1.69 85.2 0 1 200.16 456.15
  Q 200.73 455.73 202.15 453.06
  C 206.01 445.78 210.35 439.29 213.29 434.32
  Q 218.28 425.89 223.11 418.93
  Q 237.57 398.09 249.83 382.57
  Q 256.16 374.56 258.96 371.00
  C 264.58 363.85 268.91 359.16 274.33 352.82
  Q 276.68 350.08 280.74 345.76
  Q 287.77 338.27 307.70 317.70
  Q 310.00 315.32 314.48 311.24
  Q 326.94 299.88 342.75 286.45
  Q 358.39 273.18 372.27 263.19
  C 392.33 248.76 415.63 232.93 437.04 221.07
  Q 461.49 207.53 489.80 194.58
  C 522.99 179.38 558.40 168.24 593.51 159.28
  Q 624.18 151.46 657.50 147.03
  Q 728.45 137.62 799.26 143.73
  Q 949.55 156.70 1076.17 235.93
  Q 1095.94 248.30 1117.48 264.30
  Q 1139.90 280.97 1156.88 295.82
  Q 1169.72 307.05 1190.90 327.80
  Q 1203.02 339.67 1218.20 357.55
  Q 1237.07 379.78 1243.49 388.50
  Q 1263.42 415.58 1268.37 423.71
  Q 1281.74 445.66 1283.01 447.72
  Q 1291.47 461.45 1296.48 471.43
  Q 1312.59 503.53 1315.38 509.95
  Q 1344.34 576.57 1357.65 643.08
  C 1381.64 762.96 1370.85 887.39 1325.58 1001.15
  C 1319.99 1015.20 1312.11 1032.12 1306.00 1045.01
  Q 1299.61 1058.47 1291.31 1072.83
  C 1279.47 1093.31 1266.55 1114.77 1252.11 1134.12
  Q 1231.24 1162.11 1209.18 1187.27
  Q 1196.41 1201.83 1180.37 1216.83
  Q 1167.25 1229.10 1149.76 1244.58
  C 1145.29 1248.53 1142.52 1250.23 1139.02 1253.59
  Q 1137.91 1254.66 1134.67 1257.07
  Q 1109.82 1275.57 1093.33 1287.19
  Q 1076.44 1299.08 1064.57 1305.87
  Q 1051.09 1313.58 1034.57 1322.58
  Q 1029.49 1325.36 1006.80 1336.50
  C 986.31 1346.56 963.45 1354.79 939.52 1363.04
  Q 917.82 1370.52 893.29 1376.73
  Q 874.88 1381.39 847.21 1386.12
  Q 789.06 1396.05 736.24 1394.92
  Q 698.30 1394.11 660.32 1389.11
  C 613.89 1382.98 568.09 1370.64 524.79 1354.68
  C 500.33 1345.66 476.63 1334.14 452.72 1322.18
  Q 438.26 1314.95 427.20 1307.99
  Q 391.54 1285.51 379.96 1277.11
  Q 365.35 1266.50 346.00 1250.36
  C 330.71 1237.61 320.79 1229.69 309.77 1218.76
  Q 283.57 1192.81 270.70 1177.55
  C 256.06 1160.19 241.89 1142.99 229.43 1124.83
  Q 223.63 1116.38 208.28 1092.02
  Q 197.98 1075.69 187.90 1056.11
  Q 123.56 931.11 118.72 790.75
  Q 115.18 687.98 144.23 588.47
  C 150.68 566.39 159.56 542.05 166.97 523.42
  Q 172.72 508.94 182.00 490.91
  C 186.04 483.05 190.39 473.07 195.34 464.59
  Q 195.40 464.49 195.59 464.44
  A 0.55 0.53 3.6 0 0 195.91 464.17
  Z
  M 715.71 175.44
  A 0.34 0.34 0.0 0 0 715.38 175.79
  L 719.17 291.48
  A 0.34 0.34 0.0 0 0 719.52 291.81
  L 747.43 290.89
  A 0.34 0.34 0.0 0 0 747.76 290.54
  L 743.97 174.85
  A 0.34 0.34 0.0 0 0 743.62 174.52
  L 715.71 175.44
  Z
  M 860.91 255.84
  Q 860.42 255.92 860.02 255.24
  Q 843.18 226.25 833.04 209.26
  Q 826.41 198.15 816.43 180.01
  A 3.11 3.08 -10.4 0 0 814.13 178.44
  L 792.68 175.64
  A 0.67 0.67 0.0 0 0 791.94 176.19
  L 771.41 288.44
  A 0.93 0.93 0.0 0 0 772.15 289.52
  L 798.21 294.28
  A 0.81 0.81 0.0 0 0 799.16 293.63
  L 811.33 227.07
  A 0.50 0.49 35.4 0 1 812.25 226.92
  Q 834.73 266.31 856.84 302.39
  Q 858.15 304.52 860.28 304.95
  Q 870.21 306.96 879.52 308.37
  A 0.92 0.91 9.0 0 0 880.56 307.62
  Q 881.75 300.90 883.06 291.53
  Q 883.93 285.27 885.83 275.53
  Q 893.82 234.54 900.39 195.46
  A 1.00 0.99 10.2 0 0 899.58 194.31
  L 873.74 189.58
  A 0.52 0.52 0.0 0 0 873.14 190.00
  L 861.14 255.62
  A 0.28 0.28 0.0 0 1 860.91 255.84
  Z
  M 668.05 257.75
  Q 685.58 245.71 684.57 224.45
  Q 684.22 217.14 682.37 211.13
  C 678.76 199.45 667.72 190.20 655.96 187.05
  Q 643.53 183.73 629.51 186.00
  Q 625.54 186.65 599.07 192.54
  Q 582.78 196.17 573.36 197.92
  A 0.43 0.43 0.0 0 0 573.02 198.43
  L 596.07 312.94
  A 0.60 0.59 -12.2 0 0 596.79 313.40
  L 623.92 307.22
  A 0.69 0.69 0.0 0 0 624.43 306.40
  L 617.08 274.17
  A 0.49 0.48 -12.2 0 1 617.46 273.59
  L 640.96 268.86
  A 2.85 2.85 0.0 0 1 643.53 269.63
  L 670.58 296.68
  A 2.51 2.51 0.0 0 0 672.92 297.36
  L 700.55 291.06
  A 0.41 0.41 0.0 0 0 700.75 290.37
  L 667.97 258.63
  A 0.57 0.57 0.0 0 1 668.05 257.75
  Z
  M 977.12 279.95
  Q 977.28 278.51 978.37 277.53
  Q 978.77 277.17 978.76 276.57
  Q 978.75 276.06 978.98 275.58
  Q 984.82 263.44 988.90 254.04
  A 0.45 0.45 0.0 0 1 989.49 253.81
  L 1023.04 268.44
  A 0.75 0.75 0.0 0 0 1024.03 268.05
  L 1032.67 248.25
  A 1.17 1.16 23.7 0 0 1032.07 246.72
  L 937.96 205.68
  A 0.82 0.82 0.0 0 0 936.89 206.10
  L 928.27 225.89
  A 0.85 0.85 0.0 0 0 928.71 227.02
  L 962.06 241.57
  A 0.77 0.77 0.0 0 1 962.46 242.59
  L 926.16 325.82
  A 1.46 1.46 0.0 0 0 926.92 327.75
  L 950.65 338.10
  A 0.89 0.88 -66.1 0 0 951.81 337.65
  L 977.05 280.20
  A 1.10 1.05 62.0 0 0 977.12 279.95
  Z
  M 514.27 350.65
  A 1.10 1.10 0.0 0 0 514.77 349.17
  L 500.97 321.47
  A 0.94 0.94 0.0 0 1 501.45 320.18
  C 514.37 314.74 527.40 308.36 538.11 299.43
  Q 548.98 290.37 552.52 278.43
  Q 555.04 269.88 553.21 260.37
  Q 550.09 244.21 538.38 234.46
  C 524.09 222.57 503.56 224.53 487.65 232.17
  Q 477.15 237.21 465.17 243.78
  C 455.26 249.22 445.78 253.90 438.48 257.15
  A 1.04 1.04 0.0 0 0 437.97 258.56
  L 489.61 362.24
  A 0.61 0.61 0.0 0 0 490.43 362.52
  L 514.27 350.65
  Z
  M 1080.13 285.47
  Q 1080.93 284.05 1082.59 281.57
  A 1.10 1.09 33.5 0 0 1082.27 280.04
  L 1060.12 265.80
  A 1.24 1.24 0.0 0 0 1058.41 266.17
  L 1023.74 320.08
  A 0.75 0.68 -29.8 0 0 1023.63 320.42
  Q 1023.54 321.60 1022.67 322.72
  Q 1019.57 326.71 1014.78 334.02
  Q 1010.33 340.82 996.98 361.96
  A 1.02 1.02 0.0 0 0 997.29 363.36
  L 1019.57 377.69
  A 0.98 0.97 32.5 0 0 1020.91 377.40
  C 1027.47 367.22 1033.57 358.13 1040.11 346.98
  Q 1043.33 341.49 1047.51 335.36
  Q 1047.69 335.10 1048.04 334.57
  Q 1056.65 321.43 1061.23 314.67
  C 1067.39 305.59 1073.15 295.64 1079.81 285.68
  A 0.14 0.13 -72.6 0 1 1079.92 285.62
  Q 1079.95 285.62 1079.98 285.63
  A 0.22 0.07 -64.2 0 0 1080.13 285.47
  Z
  M 1155.68 428.67
  Q 1160.99 423.62 1166.13 418.45
  C 1169.17 415.38 1172.75 411.04 1176.33 407.56
  Q 1176.53 407.37 1176.67 406.65
  Q 1178.04 404.67 1180.14 403.57
  A 1.79 1.74 -87.4 0 0 1180.80 402.95
  Q 1182.19 400.69 1184.09 399.05
  C 1187.53 396.09 1191.33 391.92 1199.15 384.05
  A 1.17 1.16 -45.2 0 0 1199.15 382.40
  L 1181.23 364.67
  A 1.36 1.36 0.0 0 0 1179.30 364.68
  L 1132.57 411.89
  A 0.47 0.46 -20.4 0 1 1131.77 411.53
  L 1139.18 323.79
  A 0.53 0.51 -67.4 0 0 1139.01 323.36
  L 1121.27 307.79
  A 0.94 0.94 0.0 0 0 1119.99 307.83
  Q 1102.75 325.13 1087.04 342.00
  C 1072.48 357.63 1062.86 366.98 1049.51 380.66
  C 1046.36 383.88 1044.12 386.71 1040.95 389.51
  A 0.97 0.97 0.0 0 0 1040.92 390.94
  L 1060.04 409.07
  A 0.76 0.76 0.0 0 0 1061.12 409.05
  L 1107.78 359.85
  A 0.49 0.49 0.0 0 1 1108.62 360.23
  L 1101.14 448.84
  A 1.76 1.72 25.5 0 0 1101.65 450.22
  L 1118.57 466.97
  A 0.41 0.40 43.5 0 0 1119.15 466.96
  L 1155.68 428.67
  Z
  M 929.29 1170.81
  Q 948.27 1161.98 963.12 1153.39
  Q 1082.55 1084.29 1143.56 961.38
  Q 1147.93 952.57 1152.44 941.86
  Q 1158.18 928.21 1160.47 921.92
  Q 1213.15 777.44 1166.78 632.72
  Q 1155.72 598.23 1136.17 560.97
  C 1132.71 554.37 1127.85 546.51 1121.99 536.52
  Q 1110.62 517.15 1096.94 499.55
  C 1080.26 478.10 1061.83 457.30 1041.38 439.35
  C 1026.74 426.50 1013.73 415.32 1000.37 406.38
  Q 986.37 397.01 977.59 391.40
  Q 944.71 370.40 908.70 356.29
  C 888.16 348.25 865.64 340.64 843.54 335.72
  C 816.00 329.60 787.22 325.43 759.52 324.55
  Q 644.87 320.92 543.62 372.66
  Q 511.10 389.28 476.91 414.28
  C 471.18 418.48 466.40 422.80 459.00 428.99
  Q 432.49 451.17 410.04 476.78
  Q 396.39 492.35 379.13 516.75
  C 360.22 543.49 344.60 573.18 332.48 602.47
  C 313.89 647.37 302.85 696.42 300.45 745.75
  Q 295.09 855.67 341.84 955.14
  C 369.75 1014.51 411.24 1068.36 462.99 1110.34
  Q 480.61 1124.63 494.44 1134.07
  Q 555.35 1175.67 624.59 1195.12
  Q 682.44 1211.37 743.07 1211.66
  Q 840.41 1212.14 929.29 1170.81
  Z
  M 404.99 430.31
  C 409.39 423.20 411.80 415.44 413.68 406.05
  C 417.61 386.40 407.44 366.60 392.79 353.97
  C 374.10 337.87 346.81 338.47 326.74 351.29
  C 319.27 356.06 312.81 361.96 307.08 368.41
  Q 304.99 370.76 299.57 376.24
  Q 280.15 395.87 276.04 399.86
  A 0.93 0.93 0.0 0 0 276.03 401.19
  L 357.57 481.90
  A 0.98 0.98 0.0 0 0 358.95 481.89
  Q 370.93 469.81 386.31 453.81
  Q 397.94 441.71 404.99 430.31
  Z
  M 1274.04 523.08
  C 1275.48 511.39 1275.59 498.76 1271.42 487.72
  C 1264.58 469.57 1252.52 453.86 1234.67 445.53
  Q 1213.69 435.74 1190.28 443.15
  C 1181.68 445.88 1173.05 452.25 1167.01 458.55
  Q 1146.05 480.42 1150.62 509.49
  C 1152.71 522.80 1159.12 535.04 1167.31 545.24
  Q 1180.02 561.07 1200.21 568.65
  A 0.90 0.89 38.1 0 0 1201.00 568.56
  L 1237.36 545.37
  A 1.45 1.45 0.0 0 0 1237.83 543.42
  L 1226.42 523.90
  A 1.38 1.38 0.0 0 0 1224.48 523.44
  L 1198.38 540.08
  A 1.34 1.33 48.2 0 1 1196.82 539.99
  C 1185.90 531.08 1176.68 521.59 1176.10 506.54
  Q 1175.38 487.88 1190.01 475.26
  Q 1202.21 464.73 1219.06 467.35
  C 1237.62 470.24 1249.20 487.64 1250.73 505.01
  Q 1251.25 510.84 1251.15 518.14
  A 1.04 1.04 0.0 0 0 1251.97 519.18
  L 1273.05 523.79
  A 0.83 0.82 -80.4 0 0 1274.04 523.08
  Z
  M 272.90 487.99
  L 264.98 453.25
  A 3.09 3.08 -81.4 0 0 263.54 451.29
  L 247.59 441.95
  A 1.02 1.01 30.2 0 0 246.20 442.31
  L 204.52 513.49
  A 1.29 1.28 30.4 0 0 204.98 515.24
  L 222.75 525.64
  A 0.95 0.95 0.0 0 0 224.05 525.30
  L 249.57 481.71
  A 0.54 0.54 0.0 0 1 250.57 481.89
  L 256.15 515.74
  A 1.67 1.65 10.9 0 0 256.96 516.92
  L 271.58 525.48
  A 0.99 0.99 0.0 0 0 272.93 525.13
  Q 277.58 517.17 283.81 509.29
  Q 285.94 506.59 289.45 504.20
  C 295.90 499.82 304.40 500.83 308.24 508.07
  C 313.19 517.38 308.00 528.17 301.61 535.88
  Q 295.34 543.44 284.64 549.15
  Q 278.87 552.23 276.79 552.95
  A 0.77 0.77 0.0 0 0 276.33 553.98
  L 284.44 573.25
  A 1.64 1.63 -21.2 0 0 286.49 574.15
  C 305.83 567.24 321.19 551.65 330.28 533.79
  C 333.25 527.97 335.65 520.33 335.26 513.86
  C 335.06 510.53 335.24 507.15 334.84 504.40
  C 331.72 482.78 309.51 467.35 288.59 477.64
  Q 280.51 481.61 273.93 488.29
  A 0.61 0.61 0.0 0 1 272.90 487.99
  Z
  M 491.43 1249.88
  Q 491.83 1248.57 492.01 1248.25
  Q 500.28 1233.15 510.99 1214.00
  A 1.07 1.07 0.0 0 1 512.43 1213.58
  L 542.08 1229.76
  A 0.74 0.74 0.0 0 0 542.95 1229.64
  Q 544.90 1227.71 545.17 1227.13
  Q 548.41 1220.26 552.91 1211.68
  A 1.07 1.06 28.7 0 0 552.49 1210.26
  Q 537.45 1201.76 521.36 1193.54
  C 500.89 1183.09 485.83 1173.46 467.58 1163.28
  A 0.76 0.75 29.5 0 0 466.56 1163.56
  L 456.42 1180.88
  A 0.97 0.97 0.0 0 0 456.77 1182.21
  L 486.98 1199.90
  A 0.75 0.74 29.7 0 1 487.26 1200.90
  L 444.32 1279.61
  A 0.90 0.90 0.0 0 0 444.66 1280.82
  L 466.87 1293.83
  A 0.75 0.75 0.0 0 0 467.91 1293.54
  L 491.26 1250.29
  A 3.23 3.01 -24.5 0 0 491.43 1249.88
  Z
  M 1013.81 1176.91
  C 999.24 1176.23 987.16 1180.19 973.87 1186.85
  C 962.01 1192.80 950.90 1202.19 946.71 1214.48
  C 939.47 1235.76 950.32 1257.92 974.80 1256.98
  Q 980.31 1256.77 985.78 1255.54
  Q 989.91 1254.62 1008.49 1249.51
  C 1015.75 1247.51 1026.84 1245.39 1029.16 1254.59
  C 1031.16 1262.54 1024.46 1268.96 1017.85 1272.68
  Q 1014.60 1274.50 1007.67 1277.10
  Q 992.03 1282.98 976.02 1281.33
  A 0.40 0.40 0.0 0 0 975.58 1281.73
  L 975.58 1303.27
  A 0.78 0.78 0.0 0 0 976.32 1304.05
  Q 1004.32 1305.88 1028.35 1291.31
  Q 1037.17 1285.97 1043.51 1279.49
  Q 1045.99 1276.96 1049.26 1272.19
  Q 1057.56 1260.10 1054.79 1246.26
  C 1052.41 1234.36 1045.01 1225.40 1033.09 1223.43
  Q 1021.72 1221.54 1009.93 1224.90
  Q 996.08 1228.85 989.79 1230.53
  Q 983.74 1232.15 978.53 1232.04
  C 971.17 1231.87 968.96 1225.45 970.48 1219.12
  C 971.95 1213.00 979.23 1207.61 984.72 1204.94
  Q 998.86 1198.05 1015.23 1198.32
  A 0.85 0.85 0.0 0 0 1016.10 1197.41
  L 1014.67 1177.75
  A 0.91 0.91 0.0 0 0 1013.81 1176.91
  Z
  M 548.35 1271.18
  Q 545.19 1282.64 546.83 1296.00
  C 548.81 1312.03 559.50 1326.64 572.99 1335.23
  C 588.17 1344.90 607.20 1349.34 625.27 1345.05
  C 646.67 1339.96 661.80 1325.19 667.62 1304.11
  C 673.44 1283.03 668.03 1262.58 652.27 1247.23
  C 638.97 1234.28 620.35 1228.33 602.36 1228.84
  C 586.38 1229.29 569.70 1236.35 559.79 1249.09
  Q 551.52 1259.72 548.35 1271.18
  Z
  M 869.94 1348.88
  A 0.85 0.85 0.0 0 0 870.99 1349.48
  Q 888.25 1344.55 896.90 1342.07
  Q 921.52 1335.00 949.11 1326.25
  A 1.32 1.31 73.7 0 0 949.98 1324.66
  L 944.91 1305.61
  A 0.73 0.73 0.0 0 0 943.99 1305.10
  L 892.68 1320.79
  A 1.31 1.31 0.0 0 1 891.07 1320.00
  Q 889.89 1316.90 889.21 1314.30
  C 885.07 1298.48 882.09 1288.58 878.10 1272.80
  Q 876.94 1268.20 873.08 1255.16
  C 871.04 1248.28 868.88 1239.89 867.26 1232.42
  A 0.83 0.82 75.4 0 0 866.22 1231.80
  L 841.69 1239.31
  A 0.90 0.89 -15.8 0 0 841.08 1240.39
  L 869.94 1348.88
  Z
  M 818.52 1322.67
  Q 820.16 1316.04 820.16 1313.75
  A 3.79 3.71 53.2 0 1 820.29 1312.77
  Q 821.31 1309.13 821.27 1304.73
  Q 821.14 1291.63 815.75 1279.41
  C 807.26 1260.14 786.56 1247.82 765.92 1246.42
  Q 738.60 1244.57 717.86 1260.75
  C 698.59 1275.79 693.39 1301.33 700.00 1324.21
  Q 702.86 1334.13 710.46 1342.72
  Q 727.31 1361.77 751.89 1363.60
  C 776.99 1365.48 799.69 1357.13 813.25 1335.33
  Q 816.80 1329.62 818.52 1322.67
  Z"
/>
<path d="
  M 604.99 214.99
  A 0.88 0.88 0.0 0 1 605.67 213.94
  L 630.88 208.59
  A 21.65 17.84 -12.0 0 1 655.76 221.53
  L 656.44 224.72
  A 21.65 17.84 -12.0 0 1 638.97 246.67
  L 613.77 252.03
  A 0.88 0.88 0.0 0 1 612.72 251.35
  L 604.99 214.99
  Z"
/>
<path d="
  M 473.85 264.91
  Q 487.14 256.80 499.63 251.96
  Q 506.93 249.14 514.76 252.03
  C 520.99 254.34 525.42 261.95 525.85 268.12
  C 526.57 278.54 521.12 284.45 512.52 289.51
  Q 502.79 295.23 491.38 300.24
  A 1.43 1.43 0.0 0 1 489.51 299.55
  L 473.47 266.21
  A 1.02 1.02 0.0 0 1 473.85 264.91
  Z"
/>
<path d="
  M 312.43 396.73
  C 321.32 386.26 331.34 373.12 345.03 368.92
  Q 362.02 363.70 375.83 375.94
  C 393.18 391.32 390.80 413.58 376.69 429.95
  Q 368.62 439.32 362.12 445.85
  A 1.12 1.12 0.0 0 1 360.54 445.86
  L 312.50 398.31
  A 1.16 1.16 0.0 0 1 312.43 396.73
  Z"
/>
<path d="
  M 797.55 1090.00
  A 0.65 0.65 0.0 0 0 796.70 1090.46
  L 785.01 1138.33
  A 1.28 1.27 -86.9 0 1 783.96 1139.28
  Q 744.48 1144.70 704.80 1139.44
  A 1.70 1.69 86.7 0 1 703.38 1138.17
  L 691.62 1090.93
  A 0.91 0.91 0.0 0 0 690.23 1090.40
  C 682.64 1095.57 674.77 1100.57 667.82 1105.46
  Q 653.20 1115.77 638.22 1125.22
  Q 633.40 1128.25 627.03 1130.13
  Q 603.51 1137.04 584.33 1122.51
  C 576.10 1116.27 571.39 1108.45 568.07 1099.12
  A 5.03 5.03 0.0 0 0 565.70 1096.36
  Q 544.99 1085.14 524.32 1069.36
  A 1.09 1.08 26.3 0 1 523.93 1068.23
  Q 530.25 1044.69 537.82 1018.26
  Q 538.31 1016.55 538.00 1015.06
  A 2.25 2.22 -76.5 0 0 537.23 1013.78
  C 522.94 1001.86 509.43 986.86 497.88 973.65
  A 1.67 1.66 -27.8 0 0 496.19 973.13
  L 443.72 987.09
  A 2.21 2.18 63.1 0 1 441.44 986.33
  Q 433.71 976.60 427.98 967.54
  C 416.99 950.17 408.54 936.43 402.21 919.18
  A 1.40 1.38 -32.9 0 1 402.53 917.73
  L 439.75 880.13
  A 2.96 2.96 0.0 0 0 440.48 877.19
  Q 437.57 867.47 435.79 862.34
  C 431.34 849.58 428.82 836.17 426.89 822.95
  A 1.90 1.89 3.3 0 0 425.49 821.39
  L 373.93 808.15
  A 2.35 2.35 0.0 0 1 372.19 806.17
  Q 367.36 767.38 372.40 728.95
  A 1.46 1.45 -3.6 0 1 373.47 727.74
  L 426.34 713.68
  A 0.96 0.96 0.0 0 0 427.04 712.87
  C 429.38 693.93 434.91 675.82 440.62 658.39
  A 2.74 2.74 0.0 0 0 439.96 655.61
  L 402.44 618.09
  A 1.70 1.69 -56.6 0 1 402.07 616.26
  C 408.83 599.87 417.79 584.05 427.57 568.80
  Q 434.48 558.02 442.21 548.52
  A 1.24 1.22 -62.1 0 1 443.51 548.11
  L 494.88 562.91
  A 1.80 1.79 29.0 0 0 496.71 562.39
  Q 504.89 553.33 509.11 548.68
  C 518.47 538.36 527.06 530.63 536.77 521.76
  Q 538.09 520.55 537.50 518.59
  Q 529.78 492.77 522.86 467.66
  A 1.21 1.19 -25.7 0 1 523.32 466.37
  C 545.30 450.68 566.39 437.23 590.98 427.03
  A 1.95 1.94 -33.1 0 1 593.13 427.48
  L 629.90 465.67
  A 2.03 2.02 -32.5 0 0 632.08 466.15
  C 649.82 459.41 669.24 454.42 689.24 450.22
  A 0.93 0.92 0.9 0 0 689.95 449.54
  L 703.30 397.56
  A 1.54 1.53 3.4 0 1 704.58 396.43
  Q 744.36 391.18 783.48 396.64
  A 1.97 1.97 0.0 0 1 785.11 398.11
  L 797.89 449.47
  A 1.17 1.15 -1.5 0 0 798.80 450.32
  Q 828.80 455.86 856.83 466.26
  A 1.07 1.07 0.0 0 0 857.98 466.00
  L 895.41 427.34
  A 1.15 1.14 32.9 0 1 896.65 427.08
  C 921.13 436.79 943.56 450.77 964.73 466.34
  A 1.29 1.28 26.3 0 1 965.20 467.72
  L 950.36 519.23
  A 2.14 2.13 29.2 0 0 950.98 521.42
  C 960.51 529.95 968.25 536.48 975.79 544.80
  C 982.92 552.66 987.42 558.01 991.92 562.48
  A 1.82 1.81 -30.5 0 0 993.69 562.93
  L 1045.03 548.18
  A 1.23 1.21 62.4 0 1 1046.31 548.59
  C 1059.55 565.00 1069.69 582.39 1079.43 602.07
  Q 1082.99 609.23 1085.74 616.14
  A 2.25 2.24 -33.5 0 1 1085.24 618.56
  L 1047.64 656.16
  A 1.81 1.79 -31.9 0 0 1047.20 658.00
  C 1053.78 677.75 1058.74 694.54 1061.37 713.16
  A 1.12 1.11 3.6 0 0 1062.20 714.09
  L 1114.46 727.51
  A 1.60 1.59 -86.5 0 1 1115.64 728.85
  Q 1120.75 767.72 1115.63 807.05
  A 0.97 0.97 0.0 0 1 1114.92 807.87
  L 1062.23 821.88
  A 1.10 1.09 -3.4 0 0 1061.44 822.76
  C 1058.55 841.78 1053.49 859.86 1047.05 877.93
  A 1.66 1.65 32.1 0 0 1047.45 879.66
  L 1085.82 917.64
  A 1.43 1.42 33.0 0 1 1086.15 919.17
  Q 1080.96 932.58 1073.80 945.30
  C 1065.54 959.97 1056.86 974.29 1046.39 987.13
  A 1.32 1.31 27.3 0 1 1045.02 987.56
  Q 996.39 974.03 993.13 973.17
  Q 990.39 972.45 989.12 975.19
  A 2.54 2.26 -15.1 0 1 988.72 975.80
  Q 983.25 981.99 978.88 986.90
  Q 965.27 1002.18 950.43 1014.44
  A 1.49 1.48 63.1 0 0 949.94 1015.96
  L 963.87 1068.32
  A 1.60 1.59 -26.4 0 1 963.30 1069.99
  C 950.80 1079.59 936.79 1088.09 922.10 1096.26
  A 3.87 3.84 84.3 0 0 920.28 1098.50
  Q 914.96 1115.69 901.29 1124.49
  C 885.23 1134.83 865.12 1134.49 848.87 1124.19
  Q 841.83 1119.72 830.98 1112.27
  Q 801.63 1092.10 799.24 1090.75
  Q 798.46 1090.31 797.55 1090.00
  Z
  M 532.34 866.98
  Q 535.02 859.25 535.50 852.62
  A 1.69 1.68 19.1 0 0 534.75 851.08
  L 523.31 843.41
  C 520.36 841.65 517.28 840.02 514.50 838.17
  Q 507.64 833.58 499.41 829.00
  C 497.29 827.82 495.12 825.97 493.36 824.11
  A 3.88 3.86 9.8 0 1 492.80 823.32
  Q 489.13 816.42 491.51 808.52
  C 493.38 802.28 499.48 797.63 505.38 795.13
  Q 508.99 793.60 511.95 792.42
  C 534.44 786.18 558.75 788.31 578.08 801.69
  Q 601.17 817.69 610.21 845.16
  C 613.76 855.96 612.11 866.05 619.92 873.59
  Q 623.51 877.06 629.42 880.54
  Q 653.90 894.98 677.63 909.29
  Q 693.87 919.08 694.85 919.65
  Q 701.26 923.37 711.98 930.11
  Q 725.56 938.65 743.16 948.58
  A 2.17 2.15 -44.8 0 0 745.27 948.58
  C 760.60 939.89 775.15 930.62 788.71 922.53
  C 806.86 911.71 816.03 906.59 829.75 897.89
  Q 838.05 892.62 845.58 888.63
  Q 845.67 888.58 862.91 878.42
  Q 869.44 874.57 872.92 867.60
  Q 874.41 864.61 875.14 858.61
  C 876.42 848.13 879.70 839.51 884.53 830.47
  C 902.43 796.92 939.75 781.74 976.03 792.31
  Q 981.02 794.10 985.85 796.89
  Q 992.22 800.57 995.92 806.89
  C 999.71 813.35 998.42 821.11 992.78 825.99
  Q 991.03 827.50 988.52 829.03
  Q 977.27 835.89 966.37 842.59
  Q 965.34 843.23 964.52 843.98
  L 953.67 851.17
  A 1.74 1.74 0.0 0 0 952.91 852.90
  L 955.15 866.58
  Q 959.87 873.08 967.78 877.30
  Q 969.10 878.01 970.03 878.29
  A 3.27 3.26 -52.8 0 0 972.74 877.92
  L 993.71 864.55
  A 3.63 3.63 0.0 0 0 995.08 862.98
  Q 1003.11 845.30 1006.93 825.00
  Q 1007.14 823.90 1010.71 805.73
  Q 1012.29 797.66 1012.62 791.19
  Q 1013.39 775.82 1013.03 754.35
  Q 1012.91 747.52 1012.09 741.18
  Q 1010.71 730.57 1010.20 728.12
  Q 1007.28 713.99 1005.33 703.43
  Q 1004.71 700.11 1003.60 696.52
  Q 1002.68 693.54 1001.70 689.68
  Q 1000.36 684.39 998.37 679.56
  Q 989.54 658.12 985.02 648.49
  Q 977.44 632.36 965.12 614.89
  Q 953.40 598.27 943.76 587.45
  Q 936.78 579.62 928.48 572.37
  C 916.93 562.29 907.25 553.74 895.58 545.65
  Q 890.03 541.80 884.08 538.77
  A 0.48 0.40 85.3 0 1 883.89 538.58
  Q 883.86 538.52 883.82 538.46
  A 1.51 1.47 88.7 0 0 883.29 537.94
  Q 856.80 522.36 834.94 514.59
  Q 781.94 495.76 724.75 499.51
  Q 693.87 501.53 664.19 511.00
  Q 633.09 520.92 605.09 537.73
  Q 590.05 546.76 576.75 557.46
  Q 562.56 568.86 551.02 580.52
  Q 546.84 584.73 540.03 592.96
  C 538.39 594.95 536.59 596.57 535.16 598.43
  C 522.96 614.30 511.00 630.91 502.59 649.06
  Q 494.54 666.47 488.71 682.94
  C 483.21 698.48 480.60 712.22 477.63 729.07
  Q 475.50 741.16 474.98 751.49
  Q 473.48 780.96 477.83 807.99
  Q 479.21 816.54 485.44 841.73
  Q 486.57 846.29 488.79 852.21
  Q 491.66 859.87 492.88 862.42
  A 6.38 6.28 4.1 0 0 495.17 865.02
  L 515.53 878.11
  A 2.79 2.79 0.0 0 0 518.28 878.27
  Q 525.41 874.79 531.00 869.26
  Q 532.41 867.87 532.34 866.98
  Z
  M 682.91 1074.70
  Q 684.57 1073.73 685.78 1072.92
  Q 739.15 1036.85 802.70 994.91
  Q 807.99 991.42 818.25 984.49
  C 832.21 975.04 844.64 967.32 857.77 958.16
  Q 862.01 955.20 875.71 946.40
  Q 877.25 945.41 893.70 934.69
  C 904.19 927.86 913.66 923.73 926.55 927.98
  C 931.08 929.48 935.64 931.51 939.90 932.49
  Q 963.43 937.93 984.39 926.11
  Q 996.73 919.14 1003.49 910.20
  Q 1016.05 893.58 1017.73 872.42
  A 0.95 0.94 86.1 0 0 1016.59 871.42
  L 1014.02 871.99
  A 1.08 1.05 22.4 0 0 1013.65 872.14
  Q 995.61 883.78 977.53 895.03
  C 973.19 897.73 970.44 898.03 965.88 895.54
  Q 956.13 890.19 946.18 882.32
  C 939.00 876.63 937.82 866.19 936.07 857.73
  C 934.52 850.29 932.99 844.84 938.89 840.65
  Q 958.92 826.42 979.96 813.98
  A 0.77 0.76 -45.3 0 0 979.96 812.66
  Q 975.00 809.83 969.88 808.65
  C 953.18 804.80 934.73 806.35 920.54 815.52
  C 906.77 824.43 895.06 841.20 892.78 857.49
  C 891.06 869.73 888.81 879.38 878.73 887.45
  Q 874.34 890.97 869.46 893.94
  Q 850.80 905.28 808.03 930.76
  Q 781.74 946.42 755.21 962.40
  C 744.12 969.08 740.32 971.29 728.71 977.94
  Q 723.69 980.82 708.96 989.80
  C 678.03 1008.66 656.19 1021.13 619.36 1043.34
  Q 615.56 1045.63 605.76 1051.19
  Q 597.48 1055.89 594.50 1058.77
  C 584.95 1068.02 580.53 1080.51 584.36 1093.30
  C 587.76 1104.64 596.99 1113.63 608.76 1114.90
  Q 622.14 1116.34 631.25 1109.95
  Q 645.07 1100.26 658.59 1091.33
  C 666.71 1085.98 675.19 1079.21 682.91 1074.70
  Z
  M 471.42 871.40
  A 0.93 0.93 0.0 0 0 470.37 872.40
  C 472.38 895.03 485.30 916.72 505.55 927.01
  C 517.77 933.22 532.73 935.98 546.37 932.87
  Q 551.26 931.75 556.86 929.64
  Q 563.73 927.05 567.31 926.48
  C 578.69 924.67 587.33 929.83 596.72 935.95
  Q 620.07 951.17 631.67 959.02
  Q 666.09 982.28 676.42 988.76
  A 1.22 1.20 -43.8 0 0 677.66 988.78
  L 726.28 960.35
  A 1.10 1.10 0.0 0 0 726.29 958.45
  C 713.85 951.01 703.70 944.60 692.21 937.98
  C 677.42 929.46 663.86 920.69 649.36 912.34
  Q 638.31 905.97 618.07 893.46
  C 607.14 886.70 599.55 879.64 596.99 866.25
  C 596.18 862.03 595.96 857.21 594.99 852.79
  Q 593.08 844.10 586.58 834.66
  C 575.97 819.24 562.09 809.74 543.66 807.38
  Q 529.86 805.62 516.71 809.08
  C 513.76 809.86 511.35 811.28 508.30 812.51
  A 0.82 0.79 66.6 0 0 507.89 813.60
  Q 508.05 813.95 508.56 814.18
  Q 512.64 816.03 519.86 820.90
  Q 529.69 827.53 545.69 838.07
  C 551.03 841.60 554.81 844.12 553.68 851.02
  Q 552.09 860.70 549.43 870.44
  Q 546.97 879.45 539.15 884.91
  Q 530.81 890.74 527.53 892.77
  C 523.02 895.56 519.47 898.06 514.78 896.91
  Q 513.62 896.63 505.66 892.02
  C 498.65 887.96 490.06 882.05 482.14 877.19
  C 477.40 874.28 474.16 871.77 471.42 871.40
  Z
  M 604.61 997.66
  Q 604.85 997.80 605.10 998.09
  A 2.80 2.75 -5.7 0 0 605.82 998.67
  Q 619.64 1006.48 633.01 1012.77
  C 635.80 1014.08 637.52 1012.78 639.94 1011.45
  Q 650.80 1005.42 660.54 999.51
  A 0.75 0.74 46.0 0 0 660.56 998.25
  L 630.84 978.50
  A 0.87 0.87 0.0 0 1 630.62 978.28
  Q 630.44 978.04 630.17 977.87
  Q 621.09 972.38 613.33 967.18
  Q 584.92 948.14 583.96 947.56
  C 577.37 943.62 572.25 941.33 565.09 944.31
  Q 555.97 948.11 548.18 949.79
  Q 547.58 949.92 547.70 950.54
  Q 547.75 950.80 547.95 951.02
  Q 560.10 964.15 572.87 974.37
  Q 586.55 985.31 598.71 994.04
  Q 599.65 994.71 604.61 997.66
  Z
  M 877.36 965.23
  Q 877.33 965.36 877.31 965.51
  Q 877.29 965.63 877.05 965.79
  Q 863.64 974.74 856.01 979.82
  Q 843.52 988.12 828.50 998.06
  A 1.02 1.02 0.0 0 0 828.55 999.79
  Q 840.74 1006.91 850.54 1012.48
  Q 853.33 1014.06 856.39 1012.44
  Q 867.86 1006.38 873.14 1003.82
  Q 882.11 999.48 889.04 994.54
  Q 901.62 985.57 909.74 979.24
  Q 926.30 966.35 940.54 951.15
  A 0.68 0.67 -62.0 0 0 940.20 950.03
  Q 931.25 947.93 923.67 944.82
  C 916.69 941.96 911.98 942.56 905.92 946.44
  Q 898.63 951.10 882.12 962.40
  Q 879.13 964.45 877.48 965.10
  A 0.20 0.18 -88.9 0 0 877.36 965.23
  Z
  M 760.50 1044.08
  Q 760.72 1044.29 761.14 1044.60
  Q 764.38 1046.98 793.27 1066.30
  C 809.80 1077.36 829.67 1091.20 853.69 1107.63
  Q 861.95 1113.28 866.19 1114.41
  C 879.92 1118.07 895.10 1112.21 901.47 1098.98
  Q 909.68 1081.95 899.52 1065.95
  Q 895.21 1059.17 888.70 1055.08
  C 881.08 1050.29 871.78 1045.40 864.25 1040.77
  Q 841.34 1026.71 815.32 1011.45
  C 812.87 1010.02 811.60 1008.95 809.27 1010.50
  Q 791.93 1021.97 760.57 1043.18
  A 0.58 0.58 0.0 0 0 760.50 1044.08
  Z"
/>
<path d="
  M 744.05 582.34
  Q 748.26 582.34 752.62 584.89
  Q 837.98 634.60 843.15 637.67
  Q 859.10 647.12 879.40 658.88
  Q 886.77 663.15 886.76 673.02
  Q 886.72 712.79 886.86 817.28
  Q 886.87 822.92 883.45 827.18
  C 882.28 828.65 878.02 831.58 876.41 832.52
  Q 863.31 840.20 855.13 845.18
  C 839.51 854.68 826.06 861.55 811.48 870.64
  Q 803.58 875.57 789.20 883.66
  Q 771.84 893.44 751.51 905.51
  Q 748.27 907.44 744.04 907.44
  Q 739.82 907.44 736.57 905.51
  Q 716.24 893.44 698.88 883.66
  Q 684.50 875.57 676.60 870.64
  C 662.02 861.55 648.58 854.68 632.96 845.18
  Q 624.78 840.20 611.68 832.52
  C 610.07 831.58 605.81 828.65 604.64 827.18
  Q 601.22 822.92 601.23 817.28
  Q 601.37 712.79 601.33 673.02
  Q 601.32 663.15 608.69 658.88
  Q 628.99 647.12 644.94 637.67
  Q 650.11 634.60 735.47 584.89
  Q 739.83 582.34 744.05 582.34
  Z
  M 842.19 670.77
  A 0.35 0.35 0.0 0 0 842.19 670.17
  L 744.26 612.82
  A 0.35 0.35 0.0 0 0 743.90 612.82
  L 646.02 670.06
  A 0.35 0.35 0.0 0 0 646.02 670.66
  L 743.95 728.01
  A 0.35 0.35 0.0 0 0 744.31 728.01
  L 842.19 670.77
  Z
  M 758.52 868.06
  A 0.33 0.33 0.0 0 0 759.02 868.35
  L 857.84 810.58
  A 0.33 0.33 0.0 0 0 858.00 810.29
  L 858.00 695.00
  A 0.33 0.33 0.0 0 0 857.50 694.71
  L 758.68 752.49
  A 0.33 0.33 0.0 0 0 758.52 752.78
  L 758.52 868.06
  Z
  M 630.64 695.06
  A 0.53 0.52 -75.4 0 0 629.86 695.52
  L 629.86 809.16
  A 1.60 1.59 -73.7 0 0 630.59 810.50
  Q 652.10 824.45 666.94 831.26
  Q 668.95 832.18 669.21 832.35
  C 672.86 834.75 677.40 837.21 681.69 840.21
  Q 694.79 849.38 711.00 857.74
  C 715.86 860.24 720.12 863.09 724.65 865.67
  A 3.50 3.19 79.7 0 1 725.28 866.15
  Q 726.93 867.78 728.89 868.48
  A 0.72 0.71 9.8 0 0 729.85 867.81
  L 729.85 753.90
  A 1.49 1.47 -74.6 0 0 729.14 752.63
  L 709.54 740.55
  A 1.00 0.66 56.3 0 0 709.42 740.50
  Q 707.80 740.16 706.41 738.81
  A 1.74 1.52 -3.8 0 0 706.07 738.55
  Q 699.86 734.89 692.22 730.85
  C 677.72 723.20 664.46 713.80 650.23 705.94
  Q 643.96 702.47 630.64 695.06
  Z"
/>
<ellipse cx="0.00" cy="0.00" transform="translate(615.73,1082.75) rotate(-114.5)" rx="17.32" ry="17.09"/>
<circle cx="872.66" cy="1082.76" r="17.27"/>
<path d="
  M 641.57 1295.52
  Q 639.15 1305.41 633.59 1311.62
  Q 619.37 1327.54 598.38 1321.48
  Q 579.16 1315.92 574.35 1297.21
  Q 572.17 1288.72 574.41 1279.57
  Q 576.84 1269.68 582.39 1263.46
  Q 596.61 1247.55 617.60 1253.61
  Q 636.82 1259.17 641.63 1277.87
  Q 643.81 1286.36 641.57 1295.52
  Z"
/>
<ellipse cx="0.00" cy="0.00" transform="translate(759.17,1305.17) rotate(-85.4)" rx="36.29" ry="34.83"/>
</g>
<g fill="#bcbdc1">
<path d="
  M 1176.67 406.65
  Q 1176.53 407.37 1176.33 407.56
  C 1172.75 411.04 1169.17 415.38 1166.13 418.45
  Q 1160.99 423.62 1155.68 428.67
  Q 1165.54 417.36 1176.09 406.82
  Q 1176.33 406.58 1176.67 406.65
  Z"
/>
<path d="
  M 955.15 866.58
  Q 956.13 866.34 956.56 866.02
  A 0.28 0.28 0.0 0 0 956.66 865.89
  L 965.67 845.22
  A 0.13 0.11 66.3 0 0 965.69 845.15
  Q 965.87 843.62 964.52 843.98
  Q 965.34 843.23 966.37 842.59
  Q 977.27 835.89 988.52 829.03
  Q 991.03 827.50 992.78 825.99
  C 998.42 821.11 999.71 813.35 995.92 806.89
  Q 992.22 800.57 985.85 796.89
  Q 981.02 794.10 976.03 792.31
  Q 976.25 790.00 976.25 787.61
  Q 976.25 784.91 976.47 782.91
  C 981.15 740.38 970.54 695.59 950.79 658.47
  Q 943.76 645.26 932.20 629.30
  Q 921.99 615.19 909.72 602.99
  Q 863.77 557.28 800.51 541.36
  C 738.00 525.63 673.10 536.69 618.80 570.82
  Q 580.36 594.98 553.47 632.48
  C 523.27 674.58 508.44 724.87 510.60 776.49
  Q 510.79 781.14 511.95 792.42
  Q 508.99 793.60 505.38 795.13
  C 499.48 797.63 493.38 802.28 491.51 808.52
  Q 489.13 816.42 492.80 823.32
  A 3.88 3.86 9.8 0 0 493.36 824.11
  C 495.12 825.97 497.29 827.82 499.41 829.00
  Q 507.64 833.58 514.50 838.17
  C 517.28 840.02 520.36 841.65 523.31 843.41
  L 522.87 843.57
  A 0.86 0.86 0.0 0 0 522.37 844.74
  L 532.34 866.98
  Q 532.41 867.87 531.00 869.26
  Q 525.41 874.79 518.28 878.27
  A 2.79 2.79 0.0 0 1 515.53 878.11
  L 495.17 865.02
  A 6.38 6.28 4.1 0 1 492.88 862.42
  Q 491.66 859.87 488.79 852.21
  Q 486.57 846.29 485.44 841.73
  Q 479.21 816.54 477.83 807.99
  Q 473.48 780.96 474.98 751.49
  Q 475.50 741.16 477.63 729.07
  C 480.60 712.22 483.21 698.48 488.71 682.94
  Q 494.54 666.47 502.59 649.06
  C 511.00 630.91 522.96 614.30 535.16 598.43
  C 536.59 596.57 538.39 594.95 540.03 592.96
  Q 546.84 584.73 551.02 580.52
  Q 562.56 568.86 576.75 557.46
  Q 590.05 546.76 605.09 537.73
  Q 633.09 520.92 664.19 511.00
  Q 693.87 501.53 724.75 499.51
  Q 781.94 495.76 834.94 514.59
  Q 856.80 522.36 883.29 537.94
  A 1.51 1.47 88.7 0 1 883.82 538.46
  Q 883.86 538.52 883.89 538.58
  A 0.48 0.40 85.3 0 0 884.08 538.77
  Q 890.03 541.80 895.58 545.65
  C 907.25 553.74 916.93 562.29 928.48 572.37
  Q 936.78 579.62 943.76 587.45
  Q 953.40 598.27 965.12 614.89
  Q 977.44 632.36 985.02 648.49
  Q 989.54 658.12 998.37 679.56
  Q 1000.36 684.39 1001.70 689.68
  Q 1002.68 693.54 1003.60 696.52
  Q 1004.71 700.11 1005.33 703.43
  Q 1007.28 713.99 1010.20 728.12
  Q 1010.71 730.57 1012.09 741.18
  Q 1012.91 747.52 1013.03 754.35
  Q 1013.39 775.82 1012.62 791.19
  Q 1012.29 797.66 1010.71 805.73
  Q 1007.14 823.90 1006.93 825.00
  Q 1003.11 845.30 995.08 862.98
  A 3.63 3.63 0.0 0 1 993.71 864.55
  L 972.74 877.92
  A 3.27 3.26 -52.8 0 1 970.03 878.29
  Q 969.10 878.01 967.78 877.30
  Q 959.87 873.08 955.15 866.58
  Z"
/>
<path d="
  M 604.61 997.66
  Q 599.65 994.71 598.71 994.04
  Q 586.55 985.31 572.87 974.37
  Q 560.10 964.15 547.95 951.02
  Q 547.75 950.80 547.70 950.54
  Q 547.58 949.92 548.18 949.79
  Q 555.97 948.11 565.09 944.31
  C 572.25 941.33 577.37 943.62 583.96 947.56
  Q 584.92 948.14 613.33 967.18
  Q 621.09 972.38 630.17 977.87
  Q 630.44 978.04 630.62 978.28
  A 0.87 0.87 0.0 0 0 630.84 978.50
  L 660.56 998.25
  A 0.75 0.74 46.0 0 1 660.54 999.51
  Q 650.80 1005.42 639.94 1011.45
  C 637.52 1012.78 635.80 1014.08 633.01 1012.77
  Q 619.64 1006.48 605.82 998.67
  A 2.80 2.75 -5.7 0 1 605.10 998.09
  Q 604.85 997.80 604.61 997.66
  Z"
/>
<path d="
  M 877.48 965.10
  Q 879.13 964.45 882.12 962.40
  Q 898.63 951.10 905.92 946.44
  C 911.98 942.56 916.69 941.96 923.67 944.82
  Q 931.25 947.93 940.20 950.03
  A 0.68 0.67 -62.0 0 1 940.54 951.15
  Q 926.30 966.35 909.74 979.24
  Q 901.62 985.57 889.04 994.54
  Q 882.11 999.48 873.14 1003.82
  Q 867.86 1006.38 856.39 1012.44
  Q 853.33 1014.06 850.54 1012.48
  Q 840.74 1006.91 828.55 999.79
  A 1.02 1.02 0.0 0 1 828.50 998.06
  Q 843.52 988.12 856.01 979.82
  Q 863.64 974.74 877.05 965.79
  Q 877.29 965.63 877.31 965.51
  Q 877.33 965.36 877.36 965.23
  A 0.20 0.18 -88.9 0 1 877.48 965.10
  Z"
/>
</g>
<path fill="#52a1d8" d="
  M 630.64 695.06
  Q 643.96 702.47 650.23 705.94
  C 664.46 713.80 677.72 723.20 692.22 730.85
  Q 699.86 734.89 706.07 738.55
  A 1.74 1.52 -3.8 0 1 706.41 738.81
  Q 707.80 740.16 709.42 740.50
  A 1.00 0.66 56.3 0 1 709.54 740.55
  L 729.14 752.63
  A 1.49 1.47 -74.6 0 1 729.85 753.90
  L 729.85 867.81
  A 0.72 0.71 9.8 0 1 728.89 868.48
  Q 726.93 867.78 725.28 866.15
  A 3.50 3.19 79.7 0 0 724.65 865.67
  C 720.12 863.09 715.86 860.24 711.00 857.74
  Q 694.79 849.38 681.69 840.21
  C 677.40 837.21 672.86 834.75 669.21 832.35
  Q 668.95 832.18 666.94 831.26
  Q 652.10 824.45 630.59 810.50
  A 1.60 1.59 -73.7 0 1 629.86 809.16
  L 629.86 695.52
  A 0.53 0.52 -75.4 0 1 630.64 695.06
  Z"
/>
<g fill="#ffffff">
<path d="
  M 1038.33 1341.03
  Q 1029.51 1345.17 1028.45 1345.71
  Q 1023.09 1348.43 1006.54 1356.35
  Q 995.40 1361.68 984.18 1366.10
  Q 950.67 1379.31 921.34 1387.57
  Q 906.48 1391.75 899.24 1393.68
  C 864.77 1402.84 828.47 1408.26 790.57 1411.26
  C 745.73 1414.81 701.00 1413.20 657.00 1407.03
  Q 637.71 1404.32 611.73 1398.99
  Q 562.41 1388.87 517.72 1371.50
  C 491.85 1361.45 466.55 1350.50 442.98 1337.61
  Q 405.84 1317.30 379.71 1299.07
  Q 355.01 1281.85 321.57 1254.34
  Q 318.73 1252.00 297.86 1232.17
  C 276.18 1211.56 255.57 1188.77 238.77 1167.50
  Q 226.59 1152.06 210.07 1128.19
  Q 191.09 1100.75 175.60 1071.69
  C 166.96 1055.49 157.29 1035.82 149.78 1017.81
  Q 126.13 961.09 113.63 902.64
  Q 109.86 885.00 106.19 859.87
  C 96.00 790.19 97.40 719.55 110.39 650.49
  Q 115.79 621.80 121.43 600.66
  Q 128.59 573.82 140.71 540.12
  Q 144.51 529.53 148.83 519.64
  C 153.06 509.96 158.12 497.20 163.37 486.45
  C 169.64 473.65 174.14 465.83 185.36 444.84
  C 188.57 438.83 192.38 433.56 195.13 428.49
  Q 196.56 425.86 202.15 417.73
  Q 203.60 415.62 209.31 407.03
  Q 226.61 380.97 239.42 365.41
  Q 241.40 363.02 254.68 347.24
  Q 259.29 341.76 261.76 339.16
  C 265.13 335.59 267.68 332.11 271.28 328.49
  Q 273.24 326.52 283.97 315.22
  Q 284.72 314.43 293.24 306.52
  Q 296.45 303.53 298.23 301.49
  C 300.49 298.89 302.97 297.29 305.18 295.07
  C 320.67 279.57 336.19 267.93 357.13 251.63
  Q 372.77 239.45 388.85 229.10
  Q 397.41 223.59 417.04 211.70
  Q 431.25 203.09 445.86 195.44
  C 464.20 185.85 484.25 176.94 504.00 168.77
  Q 535.26 155.83 567.31 147.08
  Q 693.72 112.58 823.24 127.82
  Q 884.91 135.08 943.66 154.11
  C 986.62 168.03 1027.59 186.25 1063.60 207.00
  Q 1104.77 230.72 1142.95 260.57
  Q 1154.28 269.43 1178.71 290.66
  Q 1192.55 302.68 1206.58 317.68
  Q 1230.90 343.66 1233.15 346.35
  Q 1252.82 369.90 1269.07 392.44
  Q 1272.96 397.85 1287.30 419.45
  Q 1295.72 432.13 1303.23 445.75
  C 1312.06 461.78 1319.03 474.05 1326.13 489.86
  Q 1327.56 493.04 1337.46 515.27
  C 1347.47 537.74 1356.02 563.20 1362.16 584.28
  Q 1406.86 737.73 1376.57 894.18
  Q 1371.95 918.04 1365.73 940.31
  C 1355.12 978.31 1341.56 1014.95 1323.84 1050.36
  C 1316.27 1065.50 1306.71 1084.08 1296.82 1099.96
  Q 1282.02 1123.71 1265.00 1147.51
  Q 1261.80 1151.99 1251.17 1165.65
  Q 1242.51 1176.79 1236.78 1183.35
  Q 1211.18 1212.70 1191.29 1231.79
  Q 1173.66 1248.70 1153.88 1264.63
  C 1152.60 1265.66 1151.34 1266.41 1150.24 1267.34
  Q 1137.18 1278.37 1133.42 1281.18
  C 1116.40 1293.89 1099.36 1305.13 1081.77 1316.30
  Q 1071.75 1322.65 1064.43 1326.80
  Q 1044.10 1338.33 1038.33 1341.03
  Z
  M 195.59 464.44
  Q 195.40 464.49 195.34 464.59
  C 190.39 473.07 186.04 483.05 182.00 490.91
  Q 172.72 508.94 166.97 523.42
  C 159.56 542.05 150.68 566.39 144.23 588.47
  Q 115.18 687.98 118.72 790.75
  Q 123.56 931.11 187.90 1056.11
  Q 197.98 1075.69 208.28 1092.02
  Q 223.63 1116.38 229.43 1124.83
  C 241.89 1142.99 256.06 1160.19 270.70 1177.55
  Q 283.57 1192.81 309.77 1218.76
  C 320.79 1229.69 330.71 1237.61 346.00 1250.36
  Q 365.35 1266.50 379.96 1277.11
  Q 391.54 1285.51 427.20 1307.99
  Q 438.26 1314.95 452.72 1322.18
  C 476.63 1334.14 500.33 1345.66 524.79 1354.68
  C 568.09 1370.64 613.89 1382.98 660.32 1389.11
  Q 698.30 1394.11 736.24 1394.92
  Q 789.06 1396.05 847.21 1386.12
  Q 874.88 1381.39 893.29 1376.73
  Q 917.82 1370.52 939.52 1363.04
  C 963.45 1354.79 986.31 1346.56 1006.80 1336.50
  Q 1029.49 1325.36 1034.57 1322.58
  Q 1051.09 1313.58 1064.57 1305.87
  Q 1076.44 1299.08 1093.33 1287.19
  Q 1109.82 1275.57 1134.67 1257.07
  Q 1137.91 1254.66 1139.02 1253.59
  C 1142.52 1250.23 1145.29 1248.53 1149.76 1244.58
  Q 1167.25 1229.10 1180.37 1216.83
  Q 1196.41 1201.83 1209.18 1187.27
  Q 1231.24 1162.11 1252.11 1134.12
  C 1266.55 1114.77 1279.47 1093.31 1291.31 1072.83
  Q 1299.61 1058.47 1306.00 1045.01
  C 1312.11 1032.12 1319.99 1015.20 1325.58 1001.15
  C 1370.85 887.39 1381.64 762.96 1357.65 643.08
  Q 1344.34 576.57 1315.38 509.95
  Q 1312.59 503.53 1296.48 471.43
  Q 1291.47 461.45 1283.01 447.72
  Q 1281.74 445.66 1268.37 423.71
  Q 1263.42 415.58 1243.49 388.50
  Q 1237.07 379.78 1218.20 357.55
  Q 1203.02 339.67 1190.90 327.80
  Q 1169.72 307.05 1156.88 295.82
  Q 1139.90 280.97 1117.48 264.30
  Q 1095.94 248.30 1076.17 235.93
  Q 949.55 156.70 799.26 143.73
  Q 728.45 137.62 657.50 147.03
  Q 624.18 151.46 593.51 159.28
  C 558.40 168.24 522.99 179.38 489.80 194.58
  Q 461.49 207.53 437.04 221.07
  C 415.63 232.93 392.33 248.76 372.27 263.19
  Q 358.39 273.18 342.75 286.45
  Q 326.94 299.88 314.48 311.24
  Q 310.00 315.32 307.70 317.70
  Q 287.77 338.27 280.74 345.76
  Q 276.68 350.08 274.33 352.82
  C 268.91 359.16 264.58 363.85 258.96 371.00
  Q 256.16 374.56 249.83 382.57
  Q 237.57 398.09 223.11 418.93
  Q 218.28 425.89 213.29 434.32
  C 210.35 439.29 206.01 445.78 202.15 453.06
  Q 200.73 455.73 200.16 456.15
  A 1.71 1.69 85.2 0 0 199.66 456.75
  L 195.91 464.17
  A 0.55 0.53 3.6 0 1 195.59 464.44
  Z"
/>
<path d="
  M 715.71 175.44
  L 743.62 174.52
  A 0.34 0.34 0.0 0 1 743.97 174.85
  L 747.76 290.54
  A 0.34 0.34 0.0 0 1 747.43 290.89
  L 719.52 291.81
  A 0.34 0.34 0.0 0 1 719.17 291.48
  L 715.38 175.79
  A 0.34 0.34 0.0 0 1 715.71 175.44
  Z"
/>
<path d="
  M 860.91 255.84
  A 0.28 0.28 0.0 0 0 861.14 255.62
  L 873.14 190.00
  A 0.52 0.52 0.0 0 1 873.74 189.58
  L 899.58 194.31
  A 1.00 0.99 10.2 0 1 900.39 195.46
  Q 893.82 234.54 885.83 275.53
  Q 883.93 285.27 883.06 291.53
  Q 881.75 300.90 880.56 307.62
  A 0.92 0.91 9.0 0 1 879.52 308.37
  Q 870.21 306.96 860.28 304.95
  Q 858.15 304.52 856.84 302.39
  Q 834.73 266.31 812.25 226.92
  A 0.50 0.49 35.4 0 0 811.33 227.07
  L 799.16 293.63
  A 0.81 0.81 0.0 0 1 798.21 294.28
  L 772.15 289.52
  A 0.93 0.93 0.0 0 1 771.41 288.44
  L 791.94 176.19
  A 0.67 0.67 0.0 0 1 792.68 175.64
  L 814.13 178.44
  A 3.11 3.08 -10.4 0 1 816.43 180.01
  Q 826.41 198.15 833.04 209.26
  Q 843.18 226.25 860.02 255.24
  Q 860.42 255.92 860.91 255.84
  Z"
/>
<path d="
  M 668.05 257.75
  A 0.57 0.57 0.0 0 0 667.97 258.63
  L 700.75 290.37
  A 0.41 0.41 0.0 0 1 700.55 291.06
  L 672.92 297.36
  A 2.51 2.51 0.0 0 1 670.58 296.68
  L 643.53 269.63
  A 2.85 2.85 0.0 0 0 640.96 268.86
  L 617.46 273.59
  A 0.49 0.48 -12.2 0 0 617.08 274.17
  L 624.43 306.40
  A 0.69 0.69 0.0 0 1 623.92 307.22
  L 596.79 313.40
  A 0.60 0.59 -12.2 0 1 596.07 312.94
  L 573.02 198.43
  A 0.43 0.43 0.0 0 1 573.36 197.92
  Q 582.78 196.17 599.07 192.54
  Q 625.54 186.65 629.51 186.00
  Q 643.53 183.73 655.96 187.05
  C 667.72 190.20 678.76 199.45 682.37 211.13
  Q 684.22 217.14 684.57 224.45
  Q 685.58 245.71 668.05 257.75
  Z
  M 604.99 214.99
  L 612.72 251.35
  A 0.88 0.88 0.0 0 0 613.77 252.03
  L 638.97 246.67
  A 21.65 17.84 -12.0 0 0 656.44 224.72
  L 655.76 221.53
  A 21.65 17.84 -12.0 0 0 630.88 208.59
  L 605.67 213.94
  A 0.88 0.88 0.0 0 0 604.99 214.99
  Z"
/>
<path d="
  M 977.05 280.20
  L 951.81 337.65
  A 0.89 0.88 -66.1 0 1 950.65 338.10
  L 926.92 327.75
  A 1.46 1.46 0.0 0 1 926.16 325.82
  L 962.46 242.59
  A 0.77 0.77 0.0 0 0 962.06 241.57
  L 928.71 227.02
  A 0.85 0.85 0.0 0 1 928.27 225.89
  L 936.89 206.10
  A 0.82 0.82 0.0 0 1 937.96 205.68
  L 1032.07 246.72
  A 1.17 1.16 23.7 0 1 1032.67 248.25
  L 1024.03 268.05
  A 0.75 0.75 0.0 0 1 1023.04 268.44
  L 989.49 253.81
  A 0.45 0.45 0.0 0 0 988.90 254.04
  Q 984.82 263.44 978.98 275.58
  Q 978.75 276.06 978.76 276.57
  Q 978.77 277.17 978.37 277.53
  Q 977.28 278.51 977.12 279.95
  A 1.10 1.05 62.0 0 1 977.05 280.20
  Z"
/>
<path d="
  M 514.27 350.65
  L 490.43 362.52
  A 0.61 0.61 0.0 0 1 489.61 362.24
  L 437.97 258.56
  A 1.04 1.04 0.0 0 1 438.48 257.15
  C 445.78 253.90 455.26 249.22 465.17 243.78
  Q 477.15 237.21 487.65 232.17
  C 503.56 224.53 524.09 222.57 538.38 234.46
  Q 550.09 244.21 553.21 260.37
  Q 555.04 269.88 552.52 278.43
  Q 548.98 290.37 538.11 299.43
  C 527.40 308.36 514.37 314.74 501.45 320.18
  A 0.94 0.94 0.0 0 0 500.97 321.47
  L 514.77 349.17
  A 1.10 1.10 0.0 0 1 514.27 350.65
  Z
  M 473.85 264.91
  A 1.02 1.02 0.0 0 0 473.47 266.21
  L 489.51 299.55
  A 1.43 1.43 0.0 0 0 491.38 300.24
  Q 502.79 295.23 512.52 289.51
  C 521.12 284.45 526.57 278.54 525.85 268.12
  C 525.42 261.95 520.99 254.34 514.76 252.03
  Q 506.93 249.14 499.63 251.96
  Q 487.14 256.80 473.85 264.91
  Z"
/>
<path d="
  M 1079.98 285.63
  Q 1079.95 285.62 1079.92 285.62
  A 0.14 0.13 -72.6 0 0 1079.81 285.68
  C 1073.15 295.64 1067.39 305.59 1061.23 314.67
  Q 1056.65 321.43 1048.04 334.57
  Q 1047.69 335.10 1047.51 335.36
  Q 1043.33 341.49 1040.11 346.98
  C 1033.57 358.13 1027.47 367.22 1020.91 377.40
  A 0.98 0.97 32.5 0 1 1019.57 377.69
  L 997.29 363.36
  A 1.02 1.02 0.0 0 1 996.98 361.96
  Q 1010.33 340.82 1014.78 334.02
  Q 1019.57 326.71 1022.67 322.72
  Q 1023.54 321.60 1023.63 320.42
  A 0.75 0.68 -29.8 0 1 1023.74 320.08
  L 1058.41 266.17
  A 1.24 1.24 0.0 0 1 1060.12 265.80
  L 1082.27 280.04
  A 1.10 1.09 33.5 0 1 1082.59 281.57
  Q 1080.93 284.05 1080.13 285.47
  A 0.22 0.07 -64.2 0 1 1079.98 285.63
  Z"
/>
<path d="
  M 1176.67 406.65
  Q 1176.33 406.58 1176.09 406.82
  Q 1165.54 417.36 1155.68 428.67
  L 1119.15 466.96
  A 0.41 0.40 43.5 0 1 1118.57 466.97
  L 1101.65 450.22
  A 1.76 1.72 25.5 0 1 1101.14 448.84
  L 1108.62 360.23
  A 0.49 0.49 0.0 0 0 1107.78 359.85
  L 1061.12 409.05
  A 0.76 0.76 0.0 0 1 1060.04 409.07
  L 1040.92 390.94
  A 0.97 0.97 0.0 0 1 1040.95 389.51
  C 1044.12 386.71 1046.36 383.88 1049.51 380.66
  C 1062.86 366.98 1072.48 357.63 1087.04 342.00
  Q 1102.75 325.13 1119.99 307.83
  A 0.94 0.94 0.0 0 1 1121.27 307.79
  L 1139.01 323.36
  A 0.53 0.51 -67.4 0 1 1139.18 323.79
  L 1131.77 411.53
  A 0.47 0.46 -20.4 0 0 1132.57 411.89
  L 1179.30 364.68
  A 1.36 1.36 0.0 0 1 1181.23 364.67
  L 1199.15 382.40
  A 1.17 1.16 -45.2 0 1 1199.15 384.05
  C 1191.33 391.92 1187.53 396.09 1184.09 399.05
  Q 1182.19 400.69 1180.80 402.95
  A 1.79 1.74 -87.4 0 1 1180.14 403.57
  Q 1178.04 404.67 1176.67 406.65
  Z"
/>
<path d="
  M 929.29 1170.81
  Q 840.41 1212.14 743.07 1211.66
  Q 682.44 1211.37 624.59 1195.12
  Q 555.35 1175.67 494.44 1134.07
  Q 480.61 1124.63 462.99 1110.34
  C 411.24 1068.36 369.75 1014.51 341.84 955.14
  Q 295.09 855.67 300.45 745.75
  C 302.85 696.42 313.89 647.37 332.48 602.47
  C 344.60 573.18 360.22 543.49 379.13 516.75
  Q 396.39 492.35 410.04 476.78
  Q 432.49 451.17 459.00 428.99
  C 466.40 422.80 471.18 418.48 476.91 414.28
  Q 511.10 389.28 543.62 372.66
  Q 644.87 320.92 759.52 324.55
  C 787.22 325.43 816.00 329.60 843.54 335.72
  C 865.64 340.64 888.16 348.25 908.70 356.29
  Q 944.71 370.40 977.59 391.40
  Q 986.37 397.01 1000.37 406.38
  C 1013.73 415.32 1026.74 426.50 1041.38 439.35
  C 1061.83 457.30 1080.26 478.10 1096.94 499.55
  Q 1110.62 517.15 1121.99 536.52
  C 1127.85 546.51 1132.71 554.37 1136.17 560.97
  Q 1155.72 598.23 1166.78 632.72
  Q 1213.15 777.44 1160.47 921.92
  Q 1158.18 928.21 1152.44 941.86
  Q 1147.93 952.57 1143.56 961.38
  Q 1082.55 1084.29 963.12 1153.39
  Q 948.27 1161.98 929.29 1170.81
  Z
  M 797.55 1090.00
  Q 798.46 1090.31 799.24 1090.75
  Q 801.63 1092.10 830.98 1112.27
  Q 841.83 1119.72 848.87 1124.19
  C 865.12 1134.49 885.23 1134.83 901.29 1124.49
  Q 914.96 1115.69 920.28 1098.50
  A 3.87 3.84 84.3 0 1 922.10 1096.26
  C 936.79 1088.09 950.80 1079.59 963.30 1069.99
  A 1.60 1.59 -26.4 0 0 963.87 1068.32
  L 949.94 1015.96
  A 1.49 1.48 63.1 0 1 950.43 1014.44
  Q 965.27 1002.18 978.88 986.90
  Q 983.25 981.99 988.72 975.80
  A 2.54 2.26 -15.1 0 0 989.12 975.19
  Q 990.39 972.45 993.13 973.17
  Q 996.39 974.03 1045.02 987.56
  A 1.32 1.31 27.3 0 0 1046.39 987.13
  C 1056.86 974.29 1065.54 959.97 1073.80 945.30
  Q 1080.96 932.58 1086.15 919.17
  A 1.43 1.42 33.0 0 0 1085.82 917.64
  L 1047.45 879.66
  A 1.66 1.65 32.1 0 1 1047.05 877.93
  C 1053.49 859.86 1058.55 841.78 1061.44 822.76
  A 1.10 1.09 -3.4 0 1 1062.23 821.88
  L 1114.92 807.87
  A 0.97 0.97 0.0 0 0 1115.63 807.05
  Q 1120.75 767.72 1115.64 728.85
  A 1.60 1.59 -86.5 0 0 1114.46 727.51
  L 1062.20 714.09
  A 1.12 1.11 3.6 0 1 1061.37 713.16
  C 1058.74 694.54 1053.78 677.75 1047.20 658.00
  A 1.81 1.79 -31.9 0 1 1047.64 656.16
  L 1085.24 618.56
  A 2.25 2.24 -33.5 0 0 1085.74 616.14
  Q 1082.99 609.23 1079.43 602.07
  C 1069.69 582.39 1059.55 565.00 1046.31 548.59
  A 1.23 1.21 62.4 0 0 1045.03 548.18
  L 993.69 562.93
  A 1.82 1.81 -30.5 0 1 991.92 562.48
  C 987.42 558.01 982.92 552.66 975.79 544.80
  C 968.25 536.48 960.51 529.95 950.98 521.42
  A 2.14 2.13 29.2 0 1 950.36 519.23
  L 965.20 467.72
  A 1.29 1.28 26.3 0 0 964.73 466.34
  C 943.56 450.77 921.13 436.79 896.65 427.08
  A 1.15 1.14 32.9 0 0 895.41 427.34
  L 857.98 466.00
  A 1.07 1.07 0.0 0 1 856.83 466.26
  Q 828.80 455.86 798.80 450.32
  A 1.17 1.15 -1.5 0 1 797.89 449.47
  L 785.11 398.11
  A 1.97 1.97 0.0 0 0 783.48 396.64
  Q 744.36 391.18 704.58 396.43
  A 1.54 1.53 3.4 0 0 703.30 397.56
  L 689.95 449.54
  A 0.93 0.92 0.9 0 1 689.24 450.22
  C 669.24 454.42 649.82 459.41 632.08 466.15
  A 2.03 2.02 -32.5 0 1 629.90 465.67
  L 593.13 427.48
  A 1.95 1.94 -33.1 0 0 590.98 427.03
  C 566.39 437.23 545.30 450.68 523.32 466.37
  A 1.21 1.19 -25.7 0 0 522.86 467.66
  Q 529.78 492.77 537.50 518.59
  Q 538.09 520.55 536.77 521.76
  C 527.06 530.63 518.47 538.36 509.11 548.68
  Q 504.89 553.33 496.71 562.39
  A 1.80 1.79 29.0 0 1 494.88 562.91
  L 443.51 548.11
  A 1.24 1.22 -62.1 0 0 442.21 548.52
  Q 434.48 558.02 427.57 568.80
  C 417.79 584.05 408.83 599.87 402.07 616.26
  A 1.70 1.69 -56.6 0 0 402.44 618.09
  L 439.96 655.61
  A 2.74 2.74 0.0 0 1 440.62 658.39
  C 434.91 675.82 429.38 693.93 427.04 712.87
  A 0.96 0.96 0.0 0 1 426.34 713.68
  L 373.47 727.74
  A 1.46 1.45 -3.6 0 0 372.40 728.95
  Q 367.36 767.38 372.19 806.17
  A 2.35 2.35 0.0 0 0 373.93 808.15
  L 425.49 821.39
  A 1.90 1.89 3.3 0 1 426.89 822.95
  C 428.82 836.17 431.34 849.58 435.79 862.34
  Q 437.57 867.47 440.48 877.19
  A 2.96 2.96 0.0 0 1 439.75 880.13
  L 402.53 917.73
  A 1.40 1.38 -32.9 0 0 402.21 919.18
  C 408.54 936.43 416.99 950.17 427.98 967.54
  Q 433.71 976.60 441.44 986.33
  A 2.21 2.18 63.1 0 0 443.72 987.09
  L 496.19 973.13
  A 1.67 1.66 -27.8 0 1 497.88 973.65
  C 509.43 986.86 522.94 1001.86 537.23 1013.78
  A 2.25 2.22 -76.5 0 1 538.00 1015.06
  Q 538.31 1016.55 537.82 1018.26
  Q 530.25 1044.69 523.93 1068.23
  A 1.09 1.08 26.3 0 0 524.32 1069.36
  Q 544.99 1085.14 565.70 1096.36
  A 5.03 5.03 0.0 0 1 568.07 1099.12
  C 571.39 1108.45 576.10 1116.27 584.33 1122.51
  Q 603.51 1137.04 627.03 1130.13
  Q 633.40 1128.25 638.22 1125.22
  Q 653.20 1115.77 667.82 1105.46
  C 674.77 1100.57 682.64 1095.57 690.23 1090.40
  A 0.91 0.91 0.0 0 1 691.62 1090.93
  L 703.38 1138.17
  A 1.70 1.69 86.7 0 0 704.80 1139.44
  Q 744.48 1144.70 783.96 1139.28
  A 1.28 1.27 -86.9 0 0 785.01 1138.33
  L 796.70 1090.46
  A 0.65 0.65 0.0 0 1 797.55 1090.00
  Z"
/>
<path d="
  M 413.68 406.05
  C 411.80 415.44 409.39 423.20 404.99 430.31
  Q 397.94 441.71 386.31 453.81
  Q 370.93 469.81 358.95 481.89
  A 0.98 0.98 0.0 0 1 357.57 481.90
  L 276.03 401.19
  A 0.93 0.93 0.0 0 1 276.04 399.86
  Q 280.15 395.87 299.57 376.24
  Q 304.99 370.76 307.08 368.41
  C 312.81 361.96 319.27 356.06 326.74 351.29
  C 346.81 338.47 374.10 337.87 392.79 353.97
  C 407.44 366.60 417.61 386.40 413.68 406.05
  Z
  M 312.43 396.73
  A 1.16 1.16 0.0 0 0 312.50 398.31
  L 360.54 445.86
  A 1.12 1.12 0.0 0 0 362.12 445.85
  Q 368.62 439.32 376.69 429.95
  C 390.80 413.58 393.18 391.32 375.83 375.94
  Q 362.02 363.70 345.03 368.92
  C 331.34 373.12 321.32 386.26 312.43 396.73
  Z"
/>
<path d="
  M 1274.04 523.08
  A 0.83 0.82 -80.4 0 1 1273.05 523.79
  L 1251.97 519.18
  A 1.04 1.04 0.0 0 1 1251.15 518.14
  Q 1251.25 510.84 1250.73 505.01
  C 1249.20 487.64 1237.62 470.24 1219.06 467.35
  Q 1202.21 464.73 1190.01 475.26
  Q 1175.38 487.88 1176.10 506.54
  C 1176.68 521.59 1185.90 531.08 1196.82 539.99
  A 1.34 1.33 48.2 0 0 1198.38 540.08
  L 1224.48 523.44
  A 1.38 1.38 0.0 0 1 1226.42 523.90
  L 1237.83 543.42
  A 1.45 1.45 0.0 0 1 1237.36 545.37
  L 1201.00 568.56
  A 0.90 0.89 38.1 0 1 1200.21 568.65
  Q 1180.02 561.07 1167.31 545.24
  C 1159.12 535.04 1152.71 522.80 1150.62 509.49
  Q 1146.05 480.42 1167.01 458.55
  C 1173.05 452.25 1181.68 445.88 1190.28 443.15
  Q 1213.69 435.74 1234.67 445.53
  C 1252.52 453.86 1264.58 469.57 1271.42 487.72
  C 1275.59 498.76 1275.48 511.39 1274.04 523.08
  Z"
/>
<path d="
  M 272.90 487.99
  A 0.61 0.61 0.0 0 0 273.93 488.29
  Q 280.51 481.61 288.59 477.64
  C 309.51 467.35 331.72 482.78 334.84 504.40
  C 335.24 507.15 335.06 510.53 335.26 513.86
  C 335.65 520.33 333.25 527.97 330.28 533.79
  C 321.19 551.65 305.83 567.24 286.49 574.15
  A 1.64 1.63 -21.2 0 1 284.44 573.25
  L 276.33 553.98
  A 0.77 0.77 0.0 0 1 276.79 552.95
  Q 278.87 552.23 284.64 549.15
  Q 295.34 543.44 301.61 535.88
  C 308.00 528.17 313.19 517.38 308.24 508.07
  C 304.40 500.83 295.90 499.82 289.45 504.20
  Q 285.94 506.59 283.81 509.29
  Q 277.58 517.17 272.93 525.13
  A 0.99 0.99 0.0 0 1 271.58 525.48
  L 256.96 516.92
  A 1.67 1.65 10.9 0 1 256.15 515.74
  L 250.57 481.89
  A 0.54 0.54 0.0 0 0 249.57 481.71
  L 224.05 525.30
  A 0.95 0.95 0.0 0 1 222.75 525.64
  L 204.98 515.24
  A 1.29 1.28 30.4 0 1 204.52 513.49
  L 246.20 442.31
  A 1.02 1.01 30.2 0 1 247.59 441.95
  L 263.54 451.29
  A 3.09 3.08 -81.4 0 1 264.98 453.25
  L 272.90 487.99
  Z"
/>
<path d="
  M 976.03 792.31
  C 939.75 781.74 902.43 796.92 884.53 830.47
  C 879.70 839.51 876.42 848.13 875.14 858.61
  Q 874.41 864.61 872.92 867.60
  Q 869.44 874.57 862.91 878.42
  Q 845.67 888.58 845.58 888.63
  Q 838.05 892.62 829.75 897.89
  C 816.03 906.59 806.86 911.71 788.71 922.53
  C 775.15 930.62 760.60 939.89 745.27 948.58
  A 2.17 2.15 -44.8 0 1 743.16 948.58
  Q 725.56 938.65 711.98 930.11
  Q 701.26 923.37 694.85 919.65
  Q 693.87 919.08 677.63 909.29
  Q 653.90 894.98 629.42 880.54
  Q 623.51 877.06 619.92 873.59
  C 612.11 866.05 613.76 855.96 610.21 845.16
  Q 601.17 817.69 578.08 801.69
  C 558.75 788.31 534.44 786.18 511.95 792.42
  Q 510.79 781.14 510.60 776.49
  C 508.44 724.87 523.27 674.58 553.47 632.48
  Q 580.36 594.98 618.80 570.82
  C 673.10 536.69 738.00 525.63 800.51 541.36
  Q 863.77 557.28 909.72 602.99
  Q 921.99 615.19 932.20 629.30
  Q 943.76 645.26 950.79 658.47
  C 970.54 695.59 981.15 740.38 976.47 782.91
  Q 976.25 784.91 976.25 787.61
  Q 976.25 790.00 976.03 792.31
  Z
  M 744.04 907.44
  Q 748.27 907.44 751.51 905.51
  Q 771.84 893.44 789.20 883.66
  Q 803.58 875.57 811.48 870.64
  C 826.06 861.55 839.51 854.68 855.13 845.18
  Q 863.31 840.20 876.41 832.52
  C 878.02 831.58 882.28 828.65 883.45 827.18
  Q 886.87 822.92 886.86 817.28
  Q 886.72 712.79 886.76 673.02
  Q 886.77 663.15 879.40 658.88
  Q 859.10 647.12 843.15 637.67
  Q 837.98 634.60 752.62 584.89
  Q 748.26 582.34 744.05 582.34
  Q 739.83 582.34 735.47 584.89
  Q 650.11 634.60 644.94 637.67
  Q 628.99 647.12 608.69 658.88
  Q 601.32 663.15 601.33 673.02
  Q 601.37 712.79 601.23 817.28
  Q 601.22 822.92 604.64 827.18
  C 605.81 828.65 610.07 831.58 611.68 832.52
  Q 624.78 840.20 632.96 845.18
  C 648.58 854.68 662.02 861.55 676.60 870.64
  Q 684.50 875.57 698.88 883.66
  Q 716.24 893.44 736.57 905.51
  Q 739.82 907.44 744.04 907.44
  Z"
/>
<path d="
  M 842.19 670.77
  L 744.31 728.01
  A 0.35 0.35 0.0 0 1 743.95 728.01
  L 646.02 670.66
  A 0.35 0.35 0.0 0 1 646.02 670.06
  L 743.90 612.82
  A 0.35 0.35 0.0 0 1 744.26 612.82
  L 842.19 670.17
  A 0.35 0.35 0.0 0 1 842.19 670.77
  Z"
/>
<path d="
  M 758.52 868.06
  L 758.52 752.78
  A 0.33 0.33 0.0 0 1 758.68 752.49
  L 857.50 694.71
  A 0.33 0.33 0.0 0 1 858.00 695.00
  L 858.00 810.29
  A 0.33 0.33 0.0 0 1 857.84 810.58
  L 759.02 868.35
  A 0.33 0.33 0.0 0 1 758.52 868.06
  Z"
/>
<path d="
  M 682.91 1074.70
  C 675.19 1079.21 666.71 1085.98 658.59 1091.33
  Q 645.07 1100.26 631.25 1109.95
  Q 622.14 1116.34 608.76 1114.90
  C 596.99 1113.63 587.76 1104.64 584.36 1093.30
  C 580.53 1080.51 584.95 1068.02 594.50 1058.77
  Q 597.48 1055.89 605.76 1051.19
  Q 615.56 1045.63 619.36 1043.34
  C 656.19 1021.13 678.03 1008.66 708.96 989.80
  Q 723.69 980.82 728.71 977.94
  C 740.32 971.29 744.12 969.08 755.21 962.40
  Q 781.74 946.42 808.03 930.76
  Q 850.80 905.28 869.46 893.94
  Q 874.34 890.97 878.73 887.45
  C 888.81 879.38 891.06 869.73 892.78 857.49
  C 895.06 841.20 906.77 824.43 920.54 815.52
  C 934.73 806.35 953.18 804.80 969.88 808.65
  Q 975.00 809.83 979.96 812.66
  A 0.77 0.76 -45.3 0 1 979.96 813.98
  Q 958.92 826.42 938.89 840.65
  C 932.99 844.84 934.52 850.29 936.07 857.73
  C 937.82 866.19 939.00 876.63 946.18 882.32
  Q 956.13 890.19 965.88 895.54
  C 970.44 898.03 973.19 897.73 977.53 895.03
  Q 995.61 883.78 1013.65 872.14
  A 1.08 1.05 22.4 0 1 1014.02 871.99
  L 1016.59 871.42
  A 0.95 0.94 86.1 0 1 1017.73 872.42
  Q 1016.05 893.58 1003.49 910.20
  Q 996.73 919.14 984.39 926.11
  Q 963.43 937.93 939.90 932.49
  C 935.64 931.51 931.08 929.48 926.55 927.98
  C 913.66 923.73 904.19 927.86 893.70 934.69
  Q 877.25 945.41 875.71 946.40
  Q 862.01 955.20 857.77 958.16
  C 844.64 967.32 832.21 975.04 818.25 984.49
  Q 807.99 991.42 802.70 994.91
  Q 739.15 1036.85 685.78 1072.92
  Q 684.57 1073.73 682.91 1074.70
  Z
  M 608.5475 1066.9895
  A 17.32 17.09 -114.5 0 0 600.1788 1089.8371
  A 17.32 17.09 -114.5 0 0 622.9125 1098.5105
  A 17.32 17.09 -114.5 0 0 631.2812 1075.6629
  A 17.32 17.09 -114.5 0 0 608.5475 1066.9895
  Z"
/>
<path d="
  M 471.42 871.40
  C 474.16 871.77 477.40 874.28 482.14 877.19
  C 490.06 882.05 498.65 887.96 505.66 892.02
  Q 513.62 896.63 514.78 896.91
  C 519.47 898.06 523.02 895.56 527.53 892.77
  Q 530.81 890.74 539.15 884.91
  Q 546.97 879.45 549.43 870.44
  Q 552.09 860.70 553.68 851.02
  C 554.81 844.12 551.03 841.60 545.69 838.07
  Q 529.69 827.53 519.86 820.90
  Q 512.64 816.03 508.56 814.18
  Q 508.05 813.95 507.89 813.60
  A 0.82 0.79 66.6 0 1 508.30 812.51
  C 511.35 811.28 513.76 809.86 516.71 809.08
  Q 529.86 805.62 543.66 807.38
  C 562.09 809.74 575.97 819.24 586.58 834.66
  Q 593.08 844.10 594.99 852.79
  C 595.96 857.21 596.18 862.03 596.99 866.25
  C 599.55 879.64 607.14 886.70 618.07 893.46
  Q 638.31 905.97 649.36 912.34
  C 663.86 920.69 677.42 929.46 692.21 937.98
  C 703.70 944.60 713.85 951.01 726.29 958.45
  A 1.10 1.10 0.0 0 1 726.28 960.35
  L 677.66 988.78
  A 1.22 1.20 -43.8 0 1 676.42 988.76
  Q 666.09 982.28 631.67 959.02
  Q 620.07 951.17 596.72 935.95
  C 587.33 929.83 578.69 924.67 567.31 926.48
  Q 563.73 927.05 556.86 929.64
  Q 551.26 931.75 546.37 932.87
  C 532.73 935.98 517.77 933.22 505.55 927.01
  C 485.30 916.72 472.38 895.03 470.37 872.40
  A 0.93 0.93 0.0 0 1 471.42 871.40
  Z"
/>
<path d="
  M 523.31 843.41
  L 534.75 851.08
  A 1.69 1.68 19.1 0 1 535.50 852.62
  Q 535.02 859.25 532.34 866.98
  L 522.37 844.74
  A 0.86 0.86 0.0 0 1 522.87 843.57
  L 523.31 843.41
  Z"
/>
<path d="
  M 964.52 843.98
  Q 965.87 843.62 965.69 845.15
  A 0.13 0.11 66.3 0 1 965.67 845.22
  L 956.66 865.89
  A 0.28 0.28 0.0 0 1 956.56 866.02
  Q 956.13 866.34 955.15 866.58
  L 952.91 852.90
  A 1.74 1.74 0.0 0 1 953.67 851.17
  L 964.52 843.98
  Z"
/>
<path d="
  M 760.50 1044.08
  A 0.58 0.58 0.0 0 1 760.57 1043.18
  Q 791.93 1021.97 809.27 1010.50
  C 811.60 1008.95 812.87 1010.02 815.32 1011.45
  Q 841.34 1026.71 864.25 1040.77
  C 871.78 1045.40 881.08 1050.29 888.70 1055.08
  Q 895.21 1059.17 899.52 1065.95
  Q 909.68 1081.95 901.47 1098.98
  C 895.10 1112.21 879.92 1118.07 866.19 1114.41
  Q 861.95 1113.28 853.69 1107.63
  C 829.67 1091.20 809.80 1077.36 793.27 1066.30
  Q 764.38 1046.98 761.14 1044.60
  Q 760.72 1044.29 760.50 1044.08
  Z
  M 889.93 1082.76
  A 17.27 17.27 0.0 0 0 872.66 1065.49
  A 17.27 17.27 0.0 0 0 855.39 1082.76
  A 17.27 17.27 0.0 0 0 872.66 1100.03
  A 17.27 17.27 0.0 0 0 889.93 1082.76
  Z"
/>
<path d="
  M 491.26 1250.29
  L 467.91 1293.54
  A 0.75 0.75 0.0 0 1 466.87 1293.83
  L 444.66 1280.82
  A 0.90 0.90 0.0 0 1 444.32 1279.61
  L 487.26 1200.90
  A 0.75 0.74 29.7 0 0 486.98 1199.90
  L 456.77 1182.21
  A 0.97 0.97 0.0 0 1 456.42 1180.88
  L 466.56 1163.56
  A 0.76 0.75 29.5 0 1 467.58 1163.28
  C 485.83 1173.46 500.89 1183.09 521.36 1193.54
  Q 537.45 1201.76 552.49 1210.26
  A 1.07 1.06 28.7 0 1 552.91 1211.68
  Q 548.41 1220.26 545.17 1227.13
  Q 544.90 1227.71 542.95 1229.64
  A 0.74 0.74 0.0 0 1 542.08 1229.76
  L 512.43 1213.58
  A 1.07 1.07 0.0 0 0 510.99 1214.00
  Q 500.28 1233.15 492.01 1248.25
  Q 491.83 1248.57 491.43 1249.88
  A 3.23 3.01 -24.5 0 1 491.26 1250.29
  Z"
/>
<path d="
  M 1013.81 1176.91
  A 0.91 0.91 0.0 0 1 1014.67 1177.75
  L 1016.10 1197.41
  A 0.85 0.85 0.0 0 1 1015.23 1198.32
  Q 998.86 1198.05 984.72 1204.94
  C 979.23 1207.61 971.95 1213.00 970.48 1219.12
  C 968.96 1225.45 971.17 1231.87 978.53 1232.04
  Q 983.74 1232.15 989.79 1230.53
  Q 996.08 1228.85 1009.93 1224.90
  Q 1021.72 1221.54 1033.09 1223.43
  C 1045.01 1225.40 1052.41 1234.36 1054.79 1246.26
  Q 1057.56 1260.10 1049.26 1272.19
  Q 1045.99 1276.96 1043.51 1279.49
  Q 1037.17 1285.97 1028.35 1291.31
  Q 1004.32 1305.88 976.32 1304.05
  A 0.78 0.78 0.0 0 1 975.58 1303.27
  L 975.58 1281.73
  A 0.40 0.40 0.0 0 1 976.02 1281.33
  Q 992.03 1282.98 1007.67 1277.10
  Q 1014.60 1274.50 1017.85 1272.68
  C 1024.46 1268.96 1031.16 1262.54 1029.16 1254.59
  C 1026.84 1245.39 1015.75 1247.51 1008.49 1249.51
  Q 989.91 1254.62 985.78 1255.54
  Q 980.31 1256.77 974.80 1256.98
  C 950.32 1257.92 939.47 1235.76 946.71 1214.48
  C 950.90 1202.19 962.01 1192.80 973.87 1186.85
  C 987.16 1180.19 999.24 1176.23 1013.81 1176.91
  Z"
/>
<path d="
  M 667.62 1304.11
  C 661.80 1325.19 646.67 1339.96 625.27 1345.05
  C 607.20 1349.34 588.17 1344.90 572.99 1335.23
  C 559.50 1326.64 548.81 1312.03 546.83 1296.00
  Q 545.19 1282.64 548.35 1271.18
  Q 551.52 1259.72 559.79 1249.09
  C 569.70 1236.35 586.38 1229.29 602.36 1228.84
  C 620.35 1228.33 638.97 1234.28 652.27 1247.23
  C 668.03 1262.58 673.44 1283.03 667.62 1304.11
  Z
  M 574.41 1279.57
  Q 572.17 1288.72 574.35 1297.21
  Q 579.16 1315.92 598.38 1321.48
  Q 619.37 1327.54 633.59 1311.62
  Q 639.15 1305.41 641.57 1295.52
  Q 643.81 1286.36 641.63 1277.87
  Q 636.82 1259.17 617.60 1253.61
  Q 596.61 1247.55 582.39 1263.46
  Q 576.84 1269.68 574.41 1279.57
  Z"
/>
<path d="
  M 869.94 1348.88
  L 841.08 1240.39
  A 0.90 0.89 -15.8 0 1 841.69 1239.31
  L 866.22 1231.80
  A 0.83 0.82 75.4 0 1 867.26 1232.42
  C 868.88 1239.89 871.04 1248.28 873.08 1255.16
  Q 876.94 1268.20 878.10 1272.80
  C 882.09 1288.58 885.07 1298.48 889.21 1314.30
  Q 889.89 1316.90 891.07 1320.00
  A 1.31 1.31 0.0 0 0 892.68 1320.79
  L 943.99 1305.10
  A 0.73 0.73 0.0 0 1 944.91 1305.61
  L 949.98 1324.66
  A 1.32 1.31 73.7 0 1 949.11 1326.25
  Q 921.52 1335.00 896.90 1342.07
  Q 888.25 1344.55 870.99 1349.48
  A 0.85 0.85 0.0 0 1 869.94 1348.88
  Z"
/>
<path d="
  M 818.52 1322.67
  Q 816.80 1329.62 813.25 1335.33
  C 799.69 1357.13 776.99 1365.48 751.89 1363.60
  Q 727.31 1361.77 710.46 1342.72
  Q 702.86 1334.13 700.00 1324.21
  C 693.39 1301.33 698.59 1275.79 717.86 1260.75
  Q 738.60 1244.57 765.92 1246.42
  C 786.56 1247.82 807.26 1260.14 815.75 1279.41
  Q 821.14 1291.63 821.27 1304.73
  Q 821.31 1309.13 820.29 1312.77
  A 3.79 3.71 53.2 0 0 820.16 1313.75
  Q 820.16 1316.04 818.52 1322.67
  Z
  M 762.0804 1268.9969
  A 36.29 34.83 -85.4 0 0 724.4522 1302.3767
  A 36.29 34.83 -85.4 0 0 756.2596 1341.3431
  A 36.29 34.83 -85.4 0 0 793.8878 1307.9633
  A 36.29 34.83 -85.4 0 0 762.0804 1268.9969
  Z"
/>
</g>
</svg>
