<?xml version="1.0" encoding="UTF-8" standalone="no"?>
<!DOCTYPE svg PUBLIC "-//W3C//DTD SVG 1.1//EN" "http://www.w3.org/Graphics/SVG/1.1/DTD/svg11.dtd">
<svg xmlns="http://www.w3.org/2000/svg" version="1.1" viewBox="0.00 0.00 505.00 498.00">
<g fill="#ee7b22">
<path d="
  M 253.56 21.29
  Q 263.13 21.29 275.26 22.72
  A 1.40 1.40 0.0 0 1 276.47 23.83
  L 283.08 55.80
  A 1.73 1.73 0.0 0 0 284.50 57.16
  Q 302.98 60.14 320.00 66.90
  A 2.11 2.09 -58.3 0 0 322.34 66.34
  L 344.09 41.77
  A 1.24 1.24 0.0 0 1 345.51 41.46
  Q 363.90 49.54 380.78 61.54
  Q 382.49 62.75 383.25 63.60
  A 1.18 1.18 0.0 0 1 383.50 64.74
  L 373.24 96.26
  A 1.62 1.62 0.0 0 0 373.75 98.01
  Q 387.98 109.70 400.16 124.39
  A 1.58 1.57 60.9 0 0 401.87 124.88
  L 433.16 114.46
  A 1.47 1.46 -27.1 0 1 434.82 114.99
  Q 447.54 132.51 456.63 152.71
  A 0.76 0.76 0.0 0 1 456.44 153.59
  L 431.47 175.99
  A 1.82 1.81 -31.7 0 0 430.99 177.99
  Q 437.87 195.79 440.72 213.54
  A 1.42 1.42 0.0 0 0 441.83 214.71
  L 473.97 221.48
  A 1.56 1.56 0.0 0 1 475.19 222.81
  Q 477.73 243.75 475.26 265.92
  A 1.75 1.75 0.0 0 1 473.88 267.44
  L 441.84 274.06
  A 1.20 1.19 89.3 0 0 440.90 275.03
  Q 437.78 293.50 431.02 311.26
  A 1.39 1.38 31.3 0 0 431.40 312.80
  Q 438.40 318.94 451.92 331.17
  C 454.00 333.05 454.64 334.55 456.23 336.30
  A 1.10 1.09 -54.5 0 1 456.42 337.47
  Q 448.48 355.25 437.48 371.23
  Q 436.03 373.33 434.51 375.06
  A 1.28 1.28 0.0 0 1 433.17 375.43
  L 401.89 365.25
  A 1.78 1.76 28.6 0 0 399.98 365.80
  Q 388.19 380.02 373.61 392.25
  A 1.39 1.39 0.0 0 0 373.18 393.77
  L 383.47 424.67
  A 1.80 1.78 62.5 0 1 382.85 426.67
  Q 364.62 440.36 345.37 448.43
  A 1.18 1.18 0.0 0 1 344.04 448.13
  L 321.82 423.35
  A 1.47 1.47 0.0 0 0 320.19 422.96
  Q 302.54 429.85 284.55 432.75
  A 1.64 1.64 0.0 0 0 283.21 434.03
  L 276.43 466.23
  A 1.32 1.30 -86.9 0 1 275.29 467.26
  Q 262.74 468.63 253.54 468.63
  Q 244.34 468.63 231.79 467.26
  A 1.32 1.30 86.9 0 1 230.65 466.23
  L 223.88 434.03
  A 1.64 1.64 0.0 0 0 222.54 432.75
  Q 204.55 429.85 186.90 422.96
  A 1.47 1.47 0.0 0 0 185.27 423.34
  L 163.05 448.12
  A 1.18 1.18 0.0 0 1 161.72 448.42
  Q 142.47 440.35 124.24 426.66
  A 1.80 1.78 -62.5 0 1 123.62 424.66
  L 133.91 393.76
  A 1.39 1.39 0.0 0 0 133.48 392.24
  Q 118.90 380.01 107.11 365.79
  A 1.78 1.76 -28.6 0 0 105.20 365.24
  L 73.92 375.42
  A 1.28 1.28 0.0 0 1 72.58 375.05
  Q 71.06 373.32 69.61 371.22
  Q 58.61 355.24 50.67 337.46
  A 1.10 1.09 54.5 0 1 50.86 336.29
  C 52.45 334.54 53.09 333.04 55.17 331.16
  Q 68.69 318.93 75.70 312.79
  A 1.39 1.38 -31.3 0 0 76.08 311.25
  Q 69.32 293.49 66.20 275.02
  A 1.20 1.19 -89.3 0 0 65.26 274.05
  L 33.22 267.42
  A 1.75 1.75 0.0 0 1 31.84 265.90
  Q 29.37 243.73 31.91 222.79
  A 1.56 1.56 0.0 0 1 33.13 221.46
  L 65.27 214.70
  A 1.42 1.42 0.0 0 0 66.38 213.53
  Q 69.23 195.78 76.12 177.98
  A 1.82 1.81 31.7 0 0 75.64 175.98
  L 50.67 153.58
  A 0.76 0.76 0.0 0 1 50.48 152.70
  Q 59.57 132.50 72.29 114.98
  A 1.47 1.46 27.1 0 1 73.95 114.45
  L 105.24 124.87
  A 1.58 1.57 -60.9 0 0 106.95 124.38
  Q 119.13 109.69 133.36 98.00
  A 1.62 1.62 0.0 0 0 133.87 96.25
  L 123.61 64.73
  A 1.18 1.18 0.0 0 1 123.86 63.59
  Q 124.62 62.74 126.33 61.53
  Q 143.21 49.53 161.61 41.45
  A 1.24 1.24 0.0 0 1 163.03 41.76
  L 184.77 66.33
  A 2.11 2.09 58.3 0 0 187.11 66.90
  Q 204.13 60.14 222.61 57.16
  A 1.73 1.73 0.0 0 0 224.03 55.80
  L 230.65 23.83
  A 1.40 1.40 0.0 0 1 231.85 22.72
  Q 243.99 21.28 253.56 21.29
  Z
  M 253.8385 79.6203
  A 165.27 165.04 -89.9 0 0 88.5103 244.6020
  A 165.27 165.04 -89.9 0 0 253.2615 410.1597
  A 165.27 165.04 -89.9 0 0 418.5897 245.1780
  A 165.27 165.04 -89.9 0 0 253.8385 79.6203
  Z"
/>
<path d="
  M 327.39 118.49
  Q 348.93 131.11 365.22 150.56
  Q 396.07 187.42 399.30 235.56
  A 0.44 0.44 0.0 0 1 398.64 235.97
  L 378.53 224.17
  A 3.19 3.17 10.1 0 1 377.00 221.99
  Q 369.96 183.31 342.06 155.43
  Q 330.43 143.81 317.12 136.01
  Q 303.82 128.21 287.99 123.74
  Q 250.04 113.01 212.85 125.76
  A 3.19 3.17 50.7 0 1 210.20 125.49
  L 190.08 113.71
  A 0.44 0.44 0.0 0 1 190.12 112.93
  Q 233.70 92.23 280.93 101.15
  Q 305.86 105.86 327.39 118.49
  Z"
/>
<path d="
  M 168.65 363.62
  Q 168.30 363.59 168.07 363.42
  Q 154.22 353.72 142.15 339.51
  Q 139.22 336.06 136.39 331.54
  C 134.45 328.44 131.37 324.45 129.03 320.68
  Q 116.70 300.80 111.09 276.20
  C 99.86 226.94 115.47 175.39 151.34 140.30
  Q 159.72 132.10 168.07 126.27
  A 0.69 0.69 0.0 0 1 169.16 126.84
  L 169.16 150.71
  A 2.03 2.00 -21.8 0 1 168.52 152.18
  Q 132.29 185.86 128.36 235.62
  Q 127.64 244.71 128.38 253.82
  Q 132.01 298.61 162.53 330.88
  C 164.51 332.97 165.59 335.13 167.79 336.84
  Q 169.26 337.99 169.26 340.28
  Q 169.24 348.67 169.01 363.30
  A 0.32 0.32 0.0 0 1 168.65 363.62
  Z"
/>
<path d="
  M 189.72 376.90
  A 0.28 0.28 0.0 0 1 189.70 376.41
  L 210.61 364.34
  A 3.28 3.25 40.0 0 1 213.37 364.11
  C 256.22 379.85 304.67 368.60 337.98 338.23
  Q 341.16 335.34 342.91 332.51
  A 4.41 4.23 84.4 0 1 343.46 331.81
  C 361.12 314.08 372.80 291.43 377.14 266.68
  A 3.63 3.62 -10.1 0 1 378.90 264.16
  L 398.45 252.88
  A 0.53 0.53 0.0 0 1 399.24 253.36
  C 397.88 281.33 387.65 308.49 371.18 330.73
  C 369.85 332.52 368.76 334.80 367.36 336.62
  Q 354.41 353.39 335.33 366.34
  Q 302.35 388.72 263.97 391.27
  Q 224.71 393.87 189.72 376.90
  Z"
/>
</g>
<path fill="#ffffff" d="
  M 190.62 139.85
  A 0.47 0.47 0.0 0 1 191.33 139.44
  L 369.56 243.99
  A 0.44 0.44 0.0 0 1 369.57 244.74
  Q 367.25 246.22 358.88 251.12
  Q 291.40 290.64 222.14 331.25
  Q 220.15 332.42 217.28 334.69
  Q 215.32 336.24 212.30 338.04
  Q 199.09 345.89 191.24 350.23
  A 0.42 0.41 -14.5 0 1 190.62 349.87
  L 190.62 139.85
  Z"
/>
</svg>
